<svg width="187" height="188" viewBox="0 0 187 188" fill="none" xmlns="http://www.w3.org/2000/svg">
<g filter="url(#filter0_d_1335_1105)">
<rect x="13" y="9" width="161" height="162" rx="23" fill="#0C3B29"/>
</g>
<path d="M130.129 50.557L116.248 60.1814C99.2201 44.6344 58.8725 54.0735 58.3173 87.9433C57.8731 115.039 77.0905 123.803 90.2313 127.504L95.5986 128.8L92.4288 130.557C66.9879 142.867 60.3758 128.313 52.0247 119.962C45.7414 113.679 29.0747 70.1756 64.4251 46.4853C92.7054 27.533 120.011 41.303 130.129 50.557Z" fill="white" stroke="white" stroke-width="0.370161"/>
<path d="M73.4713 59.6261L79.3987 39.082C45.7145 48.5212 39.4877 82.6994 41.2768 95.7168C47.5654 149.432 96.1384 129.525 95.5988 128.985C84.494 125.469 85.0698 125.577 81.6149 124.219C63.1069 116.076 58.1096 104.416 57.7394 87.3882C57.4433 73.7662 68.1039 63.2043 73.4713 59.6261Z" fill="white"/>
<path d="M105.87 131.437C83.0681 144.467 58.8595 129.216 49.6055 119.962C76.072 155.498 114.569 142.727 128.265 129.402C111.608 134.214 108.831 132.363 105.87 131.437Z" fill="#BD802A"/>
<path d="M109.11 126.209C105.992 129.337 103.557 132.316 92.6377 136.388C108.37 136.388 123.546 133.057 128.358 129.355C132.208 126.394 136.247 122.455 139.208 115.237C141.943 112.228 115.682 119.614 109.11 126.209Z" fill="white"/>
<path d="M134 65.3623V74.2295L126.319 78.6641L118.64 74.2305V65.3613L126.319 60.9277L134 65.3623Z" stroke="white" stroke-width="2.59113"/>
<path d="M144.612 83.0376V90.0562L138.535 93.5649L132.458 90.0562V83.0376L138.535 79.5288L144.612 83.0376Z" stroke="white" stroke-width="2.59113"/>
<path d="M75.3809 91.2183L87.3847 96.685C92.2199 98.887 95.3233 103.71 95.3233 109.023V117.393C95.3233 117.393 94.1502 116.121 75.3809 109.089V91.2183Z" fill="white"/>
<path d="M122.744 91.2183L110.74 96.685C105.905 98.887 102.802 103.71 102.802 109.023V117.393C102.802 117.393 103.975 116.121 122.744 109.089V91.2183Z" fill="white"/>
<path fill-rule="evenodd" clip-rule="evenodd" d="M72.9553 90.7511L69.9971 89.3499V113.172C77.3298 115.479 93.2752 121.1 99.0623 125.319C99.084 125.335 99.1055 125.351 99.1269 125.366L99.1653 125.395C99.1993 125.37 99.2337 125.344 99.2684 125.319C105.055 121.1 121.001 115.479 128.334 113.172V89.3499L125.375 90.7511V110.992C114.539 113.857 104.045 119.244 100.152 121.579V103.83C100.152 99.9685 105.031 96.0968 107.47 94.6436L121.95 88.1043V85.146C118.421 86.8587 110.273 90.7511 105.913 92.6195C101.819 94.3739 99.785 98.6453 99.1653 100.922C98.5457 98.6453 96.5113 94.3739 92.4176 92.6195C88.0581 90.7511 79.9099 86.8587 76.3807 85.146V88.1043L90.8607 94.6436C93.2999 96.0968 98.1785 99.9685 98.1785 103.83V121.579C94.286 119.244 83.7919 113.857 72.9553 110.992V90.7511Z" fill="white"/>
<defs>
<filter id="filter0_d_1335_1105" x="0" y="0" width="187" height="188" filterUnits="userSpaceOnUse" color-interpolation-filters="sRGB">
<feFlood flood-opacity="0" result="BackgroundImageFix"/>
<feColorMatrix in="SourceAlpha" type="matrix" values="0 0 0 0 0 0 0 0 0 0 0 0 0 0 0 0 0 0 127 0" result="hardAlpha"/>
<feOffset dy="4"/>
<feGaussianBlur stdDeviation="6.5"/>
<feComposite in2="hardAlpha" operator="out"/>
<feColorMatrix type="matrix" values="0 0 0 0 0 0 0 0 0 0 0 0 0 0 0 0 0 0 0.25 0"/>
<feBlend mode="normal" in2="BackgroundImageFix" result="effect1_dropShadow_1335_1105"/>
<feBlend mode="normal" in="SourceGraphic" in2="effect1_dropShadow_1335_1105" result="shape"/>
</filter>
</defs>
</svg>
