<svg width="373" height="353" viewBox="0 0 373 353" fill="none" xmlns="http://www.w3.org/2000/svg">
<path d="M252.907 25.1184L227.535 42.7095C196.413 14.2932 122.667 31.5457 121.652 93.4516C120.84 142.976 155.965 158.994 179.983 165.76L189.794 168.128L184 171.339C137.5 193.839 125.415 167.238 110.151 151.975C98.6665 140.491 68.2036 60.9765 132.816 17.6762C184.506 -16.9641 234.414 8.20424 252.907 25.1184Z" fill="url(#paint0_linear_1335_994)" stroke="#073020" stroke-width="0.676568"/>
<path d="M149.35 41.6947L160.184 4.14502C98.617 21.3975 87.2358 83.8673 90.506 107.66C102 205.839 190.78 169.453 189.794 168.467C169.497 162.039 170.549 162.236 164.234 159.756C130.406 144.871 121.272 123.559 120.596 92.4372C120.054 67.5395 139.54 48.2348 149.35 41.6947Z" fill="url(#paint1_linear_1335_994)"/>
<path d="M208.567 172.949C166.89 196.764 122.643 168.889 105.729 151.975C154.103 216.926 224.466 193.584 249.499 169.228C219.054 178.023 213.979 174.64 208.567 172.949Z" fill="#BD802A"/>
<path d="M144.803 142.005V138.969C162.048 143.161 196.538 153.366 196.538 160.651C190.479 155.014 160.649 145.967 144.803 142.005Z" fill="#0D3926"/>
<path d="M249.67 142.005V138.969C232.425 143.161 197.935 153.366 197.935 160.651C203.994 155.014 233.823 145.967 249.67 142.005Z" fill="#0D3926"/>
<path d="M144.803 103.411L176.643 114.782C184.523 117.596 189.847 124.983 190.026 133.348L190.479 154.58C190.479 154.58 183.486 149.81 144.803 138.969V103.411Z" fill="#0D3926"/>
<path d="M249.67 103.411L217.83 114.782C209.95 117.596 204.625 124.983 204.447 133.348L203.994 154.58C203.994 154.58 210.987 149.81 249.67 138.969V103.411Z" fill="#0D3926"/>
<path d="M192.808 119.509C194.206 121.677 198.982 121.677 200.381 119.509L201.663 158.049L197.002 161.518L192.808 158.049V119.509Z" fill="#0D3926"/>
<path d="M155.987 103.844C188.613 111.977 195.138 122.924 194.206 141.137L197.002 122.924C197.002 113.557 169.659 101.965 155.987 97.3394V103.844Z" fill="#0D3926"/>
<path d="M238.019 103.844C205.393 111.977 198.868 122.924 199.8 141.137L197.004 122.924C197.004 113.557 224.347 101.965 238.019 97.3394V103.844Z" fill="#0D3926"/>
<path d="M214.488 163.392C208.789 169.111 204.34 174.555 184.381 181.998C213.135 181.998 240.874 175.908 249.67 169.143C256.706 163.73 264.087 156.532 269.5 143.339C274.5 137.839 226.5 151.339 214.488 163.392Z" fill="url(#paint2_linear_1335_994)"/>
<path d="M259.981 52.1772V68.3882L245.943 76.4917L231.906 68.3882V52.1772L245.943 44.0737L259.981 52.1772Z" stroke="#06301F" stroke-width="4.73597"/>
<path d="M279.379 84.4858V97.314L268.271 103.727L257.163 97.314V84.4858L268.271 78.0728L279.379 84.4858Z" stroke="#B4842E" stroke-width="4.73597"/>
<path d="M45.6353 245.536C42.5718 245.536 39.8221 244.891 37.386 243.599C34.95 242.307 33.0492 240.517 31.6835 238.228C30.3179 235.903 29.6351 233.283 29.6351 230.367C29.6351 227.451 30.3179 224.849 31.6835 222.56C33.0492 220.272 34.9316 218.482 37.3307 217.19C39.7667 215.898 42.5349 215.252 45.6353 215.252C48.5511 215.252 51.0978 215.843 53.2755 217.024C55.4901 218.205 57.151 219.903 58.2583 222.118L52.9433 225.218C52.0944 223.852 51.024 222.837 49.7322 222.173C48.4773 221.472 47.0932 221.121 45.5799 221.121C42.9963 221.121 40.8555 221.97 39.1577 223.668C37.4599 225.329 36.6109 227.562 36.6109 230.367C36.6109 233.172 37.4414 235.423 39.1023 237.121C40.8001 238.782 42.9593 239.613 45.5799 239.613C47.0932 239.613 48.4773 239.28 49.7322 238.616C51.024 237.915 52.0944 236.881 52.9433 235.516L58.2583 238.616C57.1141 240.831 55.4347 242.547 53.2201 243.765C51.0425 244.946 48.5142 245.536 45.6353 245.536ZM92.708 215.585V245.149H86.1197V241.329C84.9755 242.731 83.5545 243.783 81.8567 244.485C80.1958 245.186 78.3503 245.536 76.3203 245.536C73.4414 245.536 70.8577 244.909 68.5694 243.654C66.3179 242.399 64.5462 240.628 63.2544 238.339C61.9995 236.051 61.372 233.393 61.372 230.367C61.372 227.34 61.9995 224.701 63.2544 222.45C64.5462 220.161 66.3179 218.39 68.5694 217.135C70.8577 215.88 73.4414 215.252 76.3203 215.252C78.2396 215.252 79.9928 215.585 81.5799 216.249C83.2039 216.913 84.6065 217.891 85.7876 219.183V215.585H92.708ZM77.0954 239.613C79.6422 239.613 81.746 238.764 83.4069 237.066C85.0678 235.368 85.8983 233.135 85.8983 230.367C85.8983 227.599 85.0678 225.366 83.4069 223.668C81.746 221.97 79.6422 221.121 77.0954 221.121C74.5487 221.121 72.4448 221.97 70.7839 223.668C69.1599 225.366 68.3479 227.599 68.3479 230.367C68.3479 233.135 69.1599 235.368 70.7839 237.066C72.4448 238.764 74.5487 239.613 77.0954 239.613ZM108.351 219.903C110.344 216.803 113.85 215.252 118.87 215.252V221.841C118.28 221.73 117.744 221.675 117.265 221.675C114.57 221.675 112.466 222.468 110.953 224.055C109.44 225.605 108.683 227.857 108.683 230.81V245.149H101.763V215.585H108.351V219.903ZM141.129 215.252C144.008 215.252 146.573 215.88 148.824 217.135C151.113 218.39 152.903 220.161 154.194 222.45C155.486 224.738 156.132 227.377 156.132 230.367C156.132 233.356 155.486 236.014 154.194 238.339C152.903 240.628 151.113 242.399 148.824 243.654C146.573 244.909 144.008 245.536 141.129 245.536C139.099 245.536 137.235 245.186 135.537 244.485C133.876 243.783 132.473 242.731 131.329 241.329V245.149H124.741V204.069H131.661V219.183C132.842 217.891 134.227 216.913 135.814 216.249C137.438 215.585 139.209 215.252 141.129 215.252ZM140.353 239.613C142.9 239.613 144.986 238.764 146.61 237.066C148.271 235.368 149.101 233.135 149.101 230.367C149.101 227.599 148.271 225.366 146.61 223.668C144.986 221.97 142.9 221.121 140.353 221.121C138.693 221.121 137.198 221.509 135.869 222.284C134.54 223.022 133.488 224.092 132.713 225.495C131.938 226.897 131.551 228.521 131.551 230.367C131.551 232.212 131.938 233.836 132.713 235.239C133.488 236.641 134.54 237.73 135.869 238.505C137.198 239.243 138.693 239.613 140.353 239.613ZM175.983 245.536C172.993 245.536 170.299 244.891 167.9 243.599C165.501 242.307 163.618 240.517 162.253 238.228C160.924 235.903 160.259 233.283 160.259 230.367C160.259 227.451 160.924 224.849 162.253 222.56C163.618 220.272 165.501 218.482 167.9 217.19C170.299 215.898 172.993 215.252 175.983 215.252C179.009 215.252 181.722 215.898 184.121 217.19C186.52 218.482 188.384 220.272 189.713 222.56C191.079 224.849 191.762 227.451 191.762 230.367C191.762 233.283 191.079 235.903 189.713 238.228C188.384 240.517 186.52 242.307 184.121 243.599C181.722 244.891 179.009 245.536 175.983 245.536ZM175.983 239.613C178.53 239.613 180.633 238.764 182.294 237.066C183.955 235.368 184.786 233.135 184.786 230.367C184.786 227.599 183.955 225.366 182.294 223.668C180.633 221.97 178.53 221.121 175.983 221.121C173.436 221.121 171.332 221.97 169.671 223.668C168.047 225.366 167.235 227.599 167.235 230.367C167.235 233.135 168.047 235.368 169.671 237.066C171.332 238.764 173.436 239.613 175.983 239.613ZM215.155 215.252C218.882 215.252 221.872 216.341 224.124 218.519C226.375 220.697 227.501 223.926 227.501 228.208V245.149H220.58V229.093C220.58 226.51 219.971 224.572 218.753 223.28C217.535 221.951 215.8 221.287 213.549 221.287C211.002 221.287 208.991 222.062 207.514 223.612C206.038 225.126 205.3 227.322 205.3 230.201V245.149H198.379V215.585H204.968V219.405C206.112 218.039 207.551 217.006 209.286 216.304C211.021 215.603 212.977 215.252 215.155 215.252Z" fill="#073322"/>
<path d="M252.889 243.543C252.077 244.208 251.08 244.706 249.899 245.038C248.755 245.37 247.537 245.536 246.245 245.536C242.997 245.536 240.487 244.688 238.716 242.99C236.944 241.292 236.058 238.819 236.058 235.571V209.052H242.979V215.806H250.896V221.342H242.979V235.405C242.979 236.844 243.329 237.952 244.031 238.727C244.769 239.465 245.784 239.834 247.076 239.834C248.626 239.834 249.918 239.428 250.951 238.616L252.889 243.543ZM286.536 215.585V245.149H279.948V241.329C278.803 242.731 277.382 243.783 275.685 244.485C274.024 245.186 272.178 245.536 270.148 245.536C267.269 245.536 264.686 244.909 262.397 243.654C260.146 242.399 258.374 240.628 257.082 238.339C255.827 236.051 255.2 233.393 255.2 230.367C255.2 227.34 255.827 224.701 257.082 222.45C258.374 220.161 260.146 218.39 262.397 217.135C264.686 215.88 267.269 215.252 270.148 215.252C272.068 215.252 273.821 215.585 275.408 216.249C277.032 216.913 278.434 217.891 279.616 219.183V215.585H286.536ZM270.923 239.613C273.47 239.613 275.574 238.764 277.235 237.066C278.896 235.368 279.726 233.135 279.726 230.367C279.726 227.599 278.896 225.366 277.235 223.668C275.574 221.97 273.47 221.121 270.923 221.121C268.377 221.121 266.273 221.97 264.612 223.668C262.988 225.366 262.176 227.599 262.176 230.367C262.176 233.135 262.988 235.368 264.612 237.066C266.273 238.764 268.377 239.613 270.923 239.613ZM305.335 245.536C302.271 245.536 299.872 244.706 298.137 243.045C296.44 241.347 295.591 238.967 295.591 235.903V204.069H302.511V235.405C302.511 238.358 303.895 239.834 306.663 239.834C307.586 239.834 308.417 239.649 309.155 239.28L309.487 244.817C308.195 245.297 306.811 245.536 305.335 245.536ZM326.259 232.471L321.11 237.343V245.149H314.189V204.069H321.11V228.872L335.449 215.585H343.754L331.408 227.986L344.916 245.149H336.501L326.259 232.471Z" fill="#C88B2B"/>
<path d="M94.4687 264.44V281.875H90.5833V279.623C89.9085 280.45 89.0705 281.07 88.0692 281.484C87.0897 281.897 86.0013 282.104 84.8041 282.104C83.1063 282.104 81.5826 281.734 80.2331 280.994C78.9053 280.254 77.8605 279.209 77.0986 277.859C76.3585 276.51 75.9885 274.943 75.9885 273.158C75.9885 271.373 76.3585 269.817 77.0986 268.489C77.8605 267.139 78.9053 266.094 80.2331 265.354C81.5826 264.614 83.1063 264.244 84.8041 264.244C85.936 264.244 86.97 264.44 87.9059 264.832C88.8637 265.224 89.6908 265.801 90.3874 266.562V264.44H94.4687ZM85.2612 278.61C86.7632 278.61 88.0039 278.11 88.9834 277.109C89.9629 276.107 90.4527 274.79 90.4527 273.158C90.4527 271.525 89.9629 270.208 88.9834 269.207C88.0039 268.206 86.7632 267.705 85.2612 267.705C83.7593 267.705 82.5186 268.206 81.5391 269.207C80.5813 270.208 80.1025 271.525 80.1025 273.158C80.1025 274.79 80.5813 276.107 81.5391 277.109C82.5186 278.11 83.7593 278.61 85.2612 278.61ZM117.93 282.104C116.123 282.104 114.501 281.723 113.065 280.961C111.628 280.199 110.507 279.144 109.702 277.794C108.896 276.423 108.494 274.877 108.494 273.158C108.494 271.438 108.896 269.904 109.702 268.554C110.507 267.205 111.617 266.149 113.032 265.387C114.469 264.625 116.101 264.244 117.93 264.244C119.649 264.244 121.151 264.592 122.435 265.289C123.741 265.986 124.721 266.987 125.374 268.293L122.24 270.121C121.739 269.316 121.108 268.717 120.346 268.326C119.606 267.912 118.789 267.705 117.897 267.705C116.373 267.705 115.111 268.206 114.11 269.207C113.108 270.187 112.608 271.503 112.608 273.158C112.608 274.812 113.097 276.14 114.077 277.141C115.078 278.121 116.352 278.61 117.897 278.61C118.789 278.61 119.606 278.415 120.346 278.023C121.108 277.609 121.739 277 122.24 276.194L125.374 278.023C124.699 279.329 123.709 280.341 122.403 281.059C121.119 281.756 119.627 282.104 117.93 282.104ZM155.812 264.44V281.875H151.927V279.623C151.252 280.45 150.414 281.07 149.413 281.484C148.433 281.897 147.345 282.104 146.148 282.104C144.45 282.104 142.926 281.734 141.577 280.994C140.249 280.254 139.204 279.209 138.442 277.859C137.702 276.51 137.332 274.943 137.332 273.158C137.332 271.373 137.702 269.817 138.442 268.489C139.204 267.139 140.249 266.094 141.577 265.354C142.926 264.614 144.45 264.244 146.148 264.244C147.28 264.244 148.313 264.44 149.249 264.832C150.207 265.224 151.034 265.801 151.731 266.562V264.44H155.812ZM146.605 278.61C148.107 278.61 149.347 278.11 150.327 277.109C151.306 276.107 151.796 274.79 151.796 273.158C151.796 271.525 151.306 270.208 150.327 269.207C149.347 268.206 148.107 267.705 146.605 267.705C145.103 267.705 143.862 268.206 142.883 269.207C141.925 270.208 141.446 271.525 141.446 273.158C141.446 274.79 141.925 276.107 142.883 277.109C143.862 278.11 145.103 278.61 146.605 278.61ZM188.35 257.649V281.875H184.432V279.623C183.757 280.45 182.919 281.07 181.918 281.484C180.938 281.897 179.85 282.104 178.653 282.104C176.977 282.104 175.464 281.734 174.114 280.994C172.787 280.254 171.742 279.209 170.98 277.859C170.218 276.488 169.837 274.921 169.837 273.158C169.837 271.395 170.218 269.838 170.98 268.489C171.742 267.139 172.787 266.094 174.114 265.354C175.464 264.614 176.977 264.244 178.653 264.244C179.806 264.244 180.862 264.44 181.82 264.832C182.778 265.224 183.594 265.811 184.269 266.595V257.649H188.35ZM179.143 278.61C180.122 278.61 181.004 278.393 181.787 277.957C182.571 277.5 183.191 276.858 183.648 276.031C184.105 275.204 184.334 274.246 184.334 273.158C184.334 272.069 184.105 271.112 183.648 270.285C183.191 269.457 182.571 268.826 181.787 268.391C181.004 267.934 180.122 267.705 179.143 267.705C178.163 267.705 177.281 267.934 176.498 268.391C175.714 268.826 175.094 269.457 174.637 270.285C174.18 271.112 173.951 272.069 173.951 273.158C173.951 274.246 174.18 275.204 174.637 276.031C175.094 276.858 175.714 277.5 176.498 277.957C177.281 278.393 178.163 278.61 179.143 278.61ZM212.104 278.643C213.998 278.643 215.576 278.012 216.838 276.749L218.993 279.263C218.231 280.199 217.252 280.907 216.055 281.386C214.858 281.865 213.508 282.104 212.006 282.104C210.091 282.104 208.404 281.723 206.945 280.961C205.487 280.199 204.355 279.144 203.55 277.794C202.766 276.423 202.374 274.877 202.374 273.158C202.374 271.46 202.755 269.936 203.517 268.587C204.301 267.215 205.367 266.149 206.717 265.387C208.088 264.625 209.633 264.244 211.353 264.244C212.986 264.244 214.466 264.603 215.794 265.322C217.143 266.018 218.21 267.03 218.993 268.358C219.777 269.664 220.169 271.199 220.169 272.962L206.815 275.574C207.228 276.575 207.892 277.337 208.806 277.859C209.721 278.382 210.82 278.643 212.104 278.643ZM211.353 267.509C209.851 267.509 208.632 267.999 207.696 268.979C206.782 269.958 206.325 271.275 206.325 272.929V272.962L216.185 271.068C215.902 270.002 215.326 269.142 214.455 268.489C213.606 267.836 212.572 267.509 211.353 267.509ZM256.218 264.244C258.416 264.244 260.158 264.886 261.442 266.171C262.726 267.433 263.368 269.338 263.368 271.884V281.875H259.287V272.407C259.287 270.883 258.95 269.74 258.275 268.979C257.6 268.195 256.632 267.803 255.369 267.803C253.998 267.803 252.898 268.26 252.071 269.174C251.244 270.067 250.831 271.351 250.831 273.027V281.875H246.749V272.407C246.749 270.883 246.412 269.74 245.737 268.979C245.062 268.195 244.094 267.803 242.831 267.803C241.438 267.803 240.328 268.249 239.501 269.142C238.696 270.034 238.293 271.329 238.293 273.027V281.875H234.211V264.44H238.097V266.66C238.75 265.877 239.566 265.278 240.546 264.865C241.525 264.451 242.614 264.244 243.811 264.244C245.117 264.244 246.27 264.495 247.272 264.995C248.295 265.474 249.1 266.192 249.688 267.15C250.406 266.236 251.331 265.528 252.463 265.028C253.595 264.505 254.847 264.244 256.218 264.244ZM295.586 264.44V279.231C295.586 285.369 292.571 288.438 286.542 288.438C284.953 288.438 283.429 288.221 281.971 287.785C280.534 287.372 279.348 286.762 278.412 285.957L280.24 282.888C280.98 283.519 281.883 284.02 282.95 284.39C284.017 284.76 285.138 284.945 286.313 284.945C288.098 284.945 289.404 284.509 290.231 283.639C291.08 282.79 291.505 281.473 291.505 279.688V278.872C290.852 279.59 290.057 280.145 289.121 280.537C288.185 280.907 287.173 281.092 286.085 281.092C283.755 281.092 281.916 280.45 280.567 279.165C279.239 277.881 278.575 275.955 278.575 273.386V264.44H282.656V272.864C282.656 274.409 283.005 275.574 283.701 276.358C284.419 277.119 285.432 277.5 286.738 277.5C288.196 277.5 289.35 277.054 290.199 276.162C291.069 275.269 291.505 273.974 291.505 272.276V264.44H295.586Z" fill="#073322"/>
<circle cx="47.9579" cy="272.966" r="6.21667" fill="#C88B2B"/>
<circle cx="325.043" cy="272.966" r="6.21667" fill="#C88B2B"/>
<circle cx="190.217" cy="303.556" r="6.21667" fill="#C88B2B"/>
<rect x="327" y="302.339" width="2.00001" height="280" transform="rotate(90 327 302.339)" fill="#C88B2B"/>
<path d="M33.1966 341.339V329.207H35.3943V339.497H40.7376V341.339H33.1966ZM46.4818 341.339V329.207H54.3722V331.05H48.6795V334.343H53.9635V336.186H48.6795V339.497H54.4196V341.339H46.4818ZM62.0091 341.339H59.6632L63.9343 329.207H66.6474L70.9244 341.339H68.5785L65.3382 331.695H65.2434L62.0091 341.339ZM62.0861 336.583H68.4838V338.348H62.0861V336.583ZM76.359 341.339V329.207H80.9085C81.8405 329.207 82.6224 329.369 83.2543 329.693C83.8901 330.017 84.3699 330.471 84.6938 331.056C85.0216 331.636 85.1855 332.313 85.1855 333.088C85.1855 333.866 85.0196 334.541 84.6879 335.113C84.3601 335.682 83.8763 336.122 83.2365 336.434C82.5968 336.742 81.8109 336.897 80.8789 336.897H77.6386V335.072H80.5827C81.1277 335.072 81.5739 334.997 81.9214 334.847C82.269 334.693 82.5257 334.47 82.6915 334.177C82.8614 333.881 82.9463 333.518 82.9463 333.088C82.9463 332.657 82.8614 332.29 82.6915 331.986C82.5217 331.678 82.2631 331.445 81.9155 331.287C81.568 331.125 81.1198 331.044 80.5708 331.044H78.5567V341.339H76.359ZM82.6264 335.842L85.6297 341.339H83.1773L80.2272 335.842H82.6264ZM101.015 329.207V341.339H99.06L93.3436 333.076H93.2429V341.339H91.0451V329.207H93.0118L98.7224 337.477H98.829V329.207H101.015Z" fill="#073322"/>
<path d="M141.057 341.339H138.711L142.983 329.207H145.696L149.973 341.339H147.627L144.386 331.695H144.292L141.057 341.339ZM141.134 336.583H147.532V338.348H141.134V336.583ZM165.221 333.301H163.006C162.943 332.937 162.826 332.616 162.656 332.335C162.487 332.051 162.275 331.81 162.023 331.613C161.77 331.415 161.482 331.267 161.158 331.168C160.838 331.066 160.492 331.014 160.121 331.014C159.462 331.014 158.877 331.18 158.368 331.512C157.858 331.84 157.459 332.321 157.171 332.957C156.883 333.589 156.739 334.361 156.739 335.273C156.739 336.201 156.883 336.983 157.171 337.619C157.463 338.251 157.862 338.729 158.368 339.053C158.877 339.373 159.46 339.533 160.115 339.533C160.479 339.533 160.818 339.485 161.134 339.39C161.454 339.292 161.74 339.148 161.993 338.958C162.25 338.768 162.465 338.535 162.639 338.259C162.816 337.983 162.939 337.667 163.006 337.311L165.221 337.323C165.139 337.9 164.959 338.441 164.682 338.946C164.41 339.452 164.053 339.898 163.61 340.285C163.168 340.668 162.651 340.968 162.058 341.185C161.466 341.399 160.808 341.505 160.086 341.505C159.019 341.505 158.068 341.258 157.23 340.765C156.393 340.271 155.734 339.558 155.252 338.626C154.77 337.694 154.529 336.577 154.529 335.273C154.529 333.966 154.772 332.849 155.258 331.921C155.743 330.989 156.405 330.276 157.242 329.782C158.079 329.288 159.027 329.042 160.086 329.042C160.761 329.042 161.389 329.136 161.969 329.326C162.55 329.515 163.067 329.794 163.521 330.161C163.976 330.524 164.349 330.971 164.641 331.5C164.937 332.025 165.131 332.625 165.221 333.301ZM170.538 331.05V329.207H180.217V331.05H176.467V341.339H174.287V331.05H170.538ZM188.118 329.207V341.339H185.92V329.207H188.118ZM205.175 335.273C205.175 336.581 204.93 337.7 204.44 338.632C203.954 339.56 203.291 340.271 202.45 340.765C201.613 341.258 200.663 341.505 199.6 341.505C198.538 341.505 197.586 341.258 196.745 340.765C195.908 340.267 195.244 339.554 194.755 338.626C194.269 337.694 194.026 336.577 194.026 335.273C194.026 333.966 194.269 332.849 194.755 331.921C195.244 330.989 195.908 330.276 196.745 329.782C197.586 329.288 198.538 329.042 199.6 329.042C200.663 329.042 201.613 329.288 202.45 329.782C203.291 330.276 203.954 330.989 204.44 331.921C204.93 332.849 205.175 333.966 205.175 335.273ZM202.965 335.273C202.965 334.353 202.821 333.577 202.533 332.945C202.248 332.31 201.853 331.83 201.348 331.506C200.842 331.178 200.26 331.014 199.6 331.014C198.941 331.014 198.358 331.178 197.853 331.506C197.347 331.83 196.95 332.31 196.662 332.945C196.378 333.577 196.236 334.353 196.236 335.273C196.236 336.194 196.378 336.972 196.662 337.607C196.95 338.239 197.347 338.719 197.853 339.047C198.358 339.371 198.941 339.533 199.6 339.533C200.26 339.533 200.842 339.371 201.348 339.047C201.853 338.719 202.248 338.239 202.533 337.607C202.821 336.972 202.965 336.194 202.965 335.273ZM221.059 329.207V341.339H219.104L213.388 333.076H213.287V341.339H211.089V329.207H213.056L218.766 337.477H218.873V329.207H221.059Z" fill="#073322"/>
<path d="M253.406 329.207V341.339H251.208V329.207H253.406ZM259.623 329.207H262.312L265.914 337.998H266.056L269.658 329.207H272.347V341.339H270.238V333.005H270.126L266.773 341.304H265.197L261.844 332.987H261.732V341.339H259.623V329.207ZM278.577 341.339V329.207H283.126C284.058 329.207 284.84 329.381 285.472 329.729C286.108 330.076 286.588 330.554 286.912 331.162C287.239 331.767 287.403 332.454 287.403 333.224C287.403 334.002 287.239 334.693 286.912 335.297C286.584 335.901 286.1 336.377 285.46 336.725C284.821 337.068 284.033 337.24 283.097 337.24H280.082V335.433H282.801C283.346 335.433 283.792 335.339 284.139 335.149C284.487 334.959 284.744 334.699 284.909 334.367C285.079 334.035 285.164 333.654 285.164 333.224C285.164 332.793 285.079 332.414 284.909 332.086C284.744 331.759 284.485 331.504 284.133 331.322C283.786 331.137 283.338 331.044 282.789 331.044H280.775V341.339H278.577ZM293.355 341.339H291.009L295.28 329.207H297.993L302.27 341.339H299.924L296.684 331.695H296.589L293.355 341.339ZM293.432 336.583H299.83V338.348H293.432V336.583ZM317.519 333.301H315.303C315.24 332.937 315.124 332.616 314.954 332.335C314.784 332.051 314.573 331.81 314.32 331.613C314.067 331.415 313.779 331.267 313.455 331.168C313.135 331.066 312.79 331.014 312.419 331.014C311.759 331.014 311.175 331.18 310.665 331.512C310.156 331.84 309.757 332.321 309.469 332.957C309.18 333.589 309.036 334.361 309.036 335.273C309.036 336.201 309.18 336.983 309.469 337.619C309.761 338.251 310.16 338.729 310.665 339.053C311.175 339.373 311.757 339.533 312.413 339.533C312.776 339.533 313.116 339.485 313.432 339.39C313.751 339.292 314.038 339.148 314.291 338.958C314.547 338.768 314.762 338.535 314.936 338.259C315.114 337.983 315.236 337.667 315.303 337.311L317.519 337.323C317.436 337.9 317.256 338.441 316.98 338.946C316.707 339.452 316.35 339.898 315.908 340.285C315.465 340.668 314.948 340.968 314.356 341.185C313.763 341.399 313.106 341.505 312.383 341.505C311.317 341.505 310.365 341.258 309.528 340.765C308.691 340.271 308.031 339.558 307.549 338.626C307.067 337.694 306.827 336.577 306.827 335.273C306.827 333.966 307.069 332.849 307.555 331.921C308.041 330.989 308.702 330.276 309.54 329.782C310.377 329.288 311.325 329.042 312.383 329.042C313.058 329.042 313.686 329.136 314.267 329.326C314.847 329.515 315.365 329.794 315.819 330.161C316.273 330.524 316.646 330.971 316.938 331.5C317.235 332.025 317.428 332.625 317.519 333.301ZM322.835 331.05V329.207H332.515V331.05H328.765V341.339H326.585V331.05H322.835Z" fill="#073322"/>
<circle cx="110.376" cy="339.753" r="1.80175" fill="#C88B2B"/>
<circle cx="227.49" cy="339.753" r="1.80175" fill="#C88B2B"/>
<circle cx="339.198" cy="339.753" r="1.80175" fill="#C88B2B"/>
<defs>
<linearGradient id="paint0_linear_1335_994" x1="172.89" y1="0.339355" x2="172.89" y2="180.045" gradientUnits="userSpaceOnUse">
<stop stop-color="#092F20"/>
<stop offset="0.495192" stop-color="#082D1E"/>
<stop offset="1" stop-color="#082B1D"/>
</linearGradient>
<linearGradient id="paint1_linear_1335_994" x1="142.259" y1="8.54271" x2="142.259" y2="179.673" gradientUnits="userSpaceOnUse">
<stop stop-color="#184E2E"/>
<stop offset="1" stop-color="#0B2F21"/>
</linearGradient>
<linearGradient id="paint2_linear_1335_994" x1="262.524" y1="147.831" x2="194.868" y2="178.954" gradientUnits="userSpaceOnUse">
<stop stop-color="#164A2C"/>
<stop offset="1" stop-color="#0B3021"/>
</linearGradient>
</defs>
</svg>
