<svg width="642" height="161" viewBox="0 0 642 161" fill="none" xmlns="http://www.w3.org/2000/svg">
<path d="M262.328 149V135.533H264.768V146.955H270.699V149H262.328ZM277.075 149V135.533H285.834V137.578H279.515V141.234H285.38V143.279H279.515V146.955H285.887V149H277.075ZM294.311 149H291.707L296.448 135.533H299.46L304.207 149H301.603L298.007 138.295H297.901L294.311 149ZM294.397 143.72H301.498V145.679H294.397V143.72ZM310.24 149V135.533H315.29C316.325 135.533 317.193 135.713 317.894 136.072C318.6 136.432 319.132 136.936 319.492 137.585C319.856 138.229 320.038 138.981 320.038 139.84C320.038 140.704 319.853 141.453 319.485 142.089C319.121 142.72 318.584 143.209 317.874 143.555C317.164 143.897 316.292 144.068 315.257 144.068H311.66V142.043H314.928C315.533 142.043 316.029 141.96 316.414 141.793C316.8 141.622 317.085 141.375 317.269 141.05C317.458 140.721 317.552 140.318 317.552 139.84C317.552 139.362 317.458 138.955 317.269 138.617C317.081 138.275 316.794 138.017 316.408 137.841C316.022 137.661 315.525 137.572 314.915 137.572H312.679V149H310.24ZM317.197 142.898L320.531 149H317.808L314.534 142.898H317.197ZM337.609 135.533V149H335.439L329.093 139.827H328.982V149H326.542V135.533H328.725L335.064 144.713H335.182V135.533H337.609Z" fill="#073322"/>
<path d="M382.058 149H379.454L384.195 135.533H387.206L391.954 149H389.35L385.753 138.295H385.648L382.058 149ZM382.143 143.72H389.245V145.679H382.143V143.72ZM408.881 140.077H406.421C406.351 139.674 406.222 139.316 406.033 139.005C405.845 138.689 405.61 138.422 405.33 138.203C405.049 137.984 404.729 137.819 404.37 137.71C404.015 137.596 403.631 137.539 403.219 137.539C402.487 137.539 401.838 137.723 401.273 138.091C400.707 138.455 400.264 138.99 399.944 139.696C399.624 140.397 399.464 141.254 399.464 142.267C399.464 143.297 399.624 144.165 399.944 144.871C400.269 145.572 400.712 146.102 401.273 146.462C401.838 146.817 402.485 146.994 403.213 146.994C403.616 146.994 403.993 146.942 404.344 146.837C404.699 146.727 405.016 146.567 405.297 146.357C405.582 146.146 405.821 145.888 406.014 145.581C406.211 145.274 406.347 144.923 406.421 144.529L408.881 144.542C408.789 145.182 408.589 145.782 408.282 146.343C407.98 146.905 407.583 147.4 407.092 147.83C406.601 148.255 406.027 148.588 405.369 148.829C404.712 149.066 403.982 149.184 403.18 149.184C401.996 149.184 400.94 148.91 400.01 148.362C399.081 147.814 398.349 147.023 397.814 145.988C397.279 144.954 397.012 143.713 397.012 142.267C397.012 140.816 397.281 139.575 397.821 138.545C398.36 137.51 399.094 136.719 400.023 136.171C400.953 135.623 402.005 135.349 403.18 135.349C403.929 135.349 404.626 135.454 405.271 135.665C405.915 135.875 406.489 136.184 406.993 136.592C407.498 136.995 407.912 137.491 408.236 138.078C408.565 138.661 408.78 139.327 408.881 140.077ZM414.782 137.578V135.533H425.526V137.578H421.364V149H418.944V137.578H414.782ZM434.296 135.533V149H431.857V135.533H434.296ZM453.23 142.267C453.23 143.718 452.958 144.96 452.415 145.995C451.875 147.025 451.139 147.814 450.205 148.362C449.276 148.91 448.222 149.184 447.042 149.184C445.863 149.184 444.807 148.91 443.873 148.362C442.944 147.81 442.207 147.019 441.664 145.988C441.124 144.954 440.855 143.713 440.855 142.267C440.855 140.816 441.124 139.575 441.664 138.545C442.207 137.51 442.944 136.719 443.873 136.171C444.807 135.623 445.863 135.349 447.042 135.349C448.222 135.349 449.276 135.623 450.205 136.171C451.139 136.719 451.875 137.51 452.415 138.545C452.958 139.575 453.23 140.816 453.23 142.267ZM450.777 142.267C450.777 141.245 450.617 140.384 450.297 139.682C449.982 138.977 449.543 138.444 448.982 138.085C448.421 137.721 447.774 137.539 447.042 137.539C446.31 137.539 445.664 137.721 445.103 138.085C444.541 138.444 444.101 138.977 443.781 139.682C443.465 140.384 443.307 141.245 443.307 142.267C443.307 143.288 443.465 144.152 443.781 144.857C444.101 145.559 444.541 146.091 445.103 146.455C445.664 146.815 446.31 146.994 447.042 146.994C447.774 146.994 448.421 146.815 448.982 146.455C449.543 146.091 449.982 145.559 450.297 144.857C450.617 144.152 450.777 143.288 450.777 142.267ZM470.862 135.533V149H468.692L462.347 139.827H462.235V149H459.795V135.533H461.978L468.317 144.713H468.436V135.533H470.862Z" fill="#073322"/>
<path d="M506.768 135.533V149H504.328V135.533H506.768ZM513.668 135.533H516.654L520.652 145.291H520.81L524.807 135.533H527.793V149H525.452V139.748H525.327L521.605 148.961H519.856L516.134 139.728H516.009V149H513.668V135.533ZM534.708 149V135.533H539.758C540.793 135.533 541.661 135.726 542.362 136.112C543.068 136.498 543.601 137.028 543.96 137.703C544.324 138.374 544.506 139.137 544.506 139.991C544.506 140.855 544.324 141.622 543.96 142.293C543.596 142.964 543.059 143.492 542.349 143.878C541.639 144.259 540.764 144.45 539.725 144.45H536.378V142.444H539.397C540.002 142.444 540.497 142.339 540.883 142.129C541.268 141.918 541.553 141.629 541.738 141.261C541.926 140.892 542.02 140.469 542.02 139.991C542.02 139.514 541.926 139.093 541.738 138.729C541.553 138.365 541.266 138.082 540.876 137.881C540.49 137.675 539.993 137.572 539.383 137.572H537.148V149H534.708ZM551.112 149H548.508L553.249 135.533H556.261L561.008 149H558.405L554.808 138.295H554.703L551.112 149ZM551.198 143.72H558.299V145.679H551.198V143.72ZM577.935 140.077H575.476C575.406 139.674 575.277 139.316 575.088 139.005C574.9 138.689 574.665 138.422 574.384 138.203C574.104 137.984 573.784 137.819 573.424 137.71C573.069 137.596 572.686 137.539 572.274 137.539C571.542 137.539 570.893 137.723 570.327 138.091C569.762 138.455 569.319 138.99 568.999 139.696C568.679 140.397 568.519 141.254 568.519 142.267C568.519 143.297 568.679 144.165 568.999 144.871C569.323 145.572 569.766 146.102 570.327 146.462C570.893 146.817 571.539 146.994 572.267 146.994C572.67 146.994 573.047 146.942 573.398 146.837C573.753 146.727 574.071 146.567 574.352 146.357C574.636 146.146 574.875 145.888 575.068 145.581C575.266 145.274 575.401 144.923 575.476 144.529L577.935 144.542C577.843 145.182 577.644 145.782 577.337 146.343C577.034 146.905 576.638 147.4 576.147 147.83C575.656 148.255 575.081 148.588 574.424 148.829C573.766 149.066 573.036 149.184 572.234 149.184C571.051 149.184 569.994 148.91 569.065 148.362C568.135 147.814 567.403 147.023 566.869 145.988C566.334 144.954 566.066 143.713 566.066 142.267C566.066 140.816 566.336 139.575 566.875 138.545C567.414 137.51 568.149 136.719 569.078 136.171C570.007 135.623 571.059 135.349 572.234 135.349C572.984 135.349 573.681 135.454 574.325 135.665C574.97 135.875 575.544 136.184 576.048 136.592C576.552 136.995 576.966 137.491 577.291 138.078C577.62 138.661 577.834 139.327 577.935 140.077ZM583.836 137.578V135.533H594.581V137.578H590.419V149H587.999V137.578H583.836Z" fill="#073322"/>
<circle cx="348" cy="147" r="2" fill="#C88B2B"/>
<circle cx="478" cy="147" r="2" fill="#C88B2B"/>
<circle cx="602" cy="147" r="2" fill="#C88B2B"/>
<path d="M328.372 84.3677V104H323.997V101.463C323.237 102.395 322.294 103.093 321.166 103.559C320.063 104.025 318.838 104.257 317.49 104.257C315.578 104.257 313.862 103.841 312.343 103.007C310.848 102.174 309.671 100.998 308.813 99.4779C307.98 97.9583 307.563 96.1936 307.563 94.1838C307.563 92.174 307.98 90.4216 308.813 88.9265C309.671 87.4069 310.848 86.2304 312.343 85.3971C313.862 84.5637 315.578 84.1471 317.49 84.1471C318.764 84.1471 319.929 84.3677 320.983 84.8088C322.061 85.25 322.992 85.8995 323.777 86.7574V84.3677H328.372ZM318.005 100.324C319.696 100.324 321.093 99.7598 322.196 98.6324C323.299 97.5049 323.85 96.0221 323.85 94.1838C323.85 92.3456 323.299 90.8628 322.196 89.7353C321.093 88.6079 319.696 88.0441 318.005 88.0441C316.313 88.0441 314.916 88.6079 313.813 89.7353C312.735 90.8628 312.196 92.3456 312.196 94.1838C312.196 96.0221 312.735 97.5049 313.813 98.6324C314.916 99.7598 316.313 100.324 318.005 100.324ZM354.789 104.257C352.755 104.257 350.929 103.828 349.311 102.971C347.694 102.113 346.432 100.924 345.525 99.4044C344.618 97.8603 344.164 96.1201 344.164 94.1838C344.164 92.2476 344.618 90.5196 345.525 89C346.432 87.4804 347.682 86.2917 349.275 85.4338C350.892 84.576 352.731 84.1471 354.789 84.1471C356.726 84.1471 358.417 84.5392 359.863 85.3235C361.334 86.1079 362.436 87.2353 363.172 88.7059L359.642 90.7647C359.079 89.8579 358.368 89.1838 357.51 88.7427C356.677 88.277 355.758 88.0441 354.753 88.0441C353.037 88.0441 351.615 88.6079 350.488 89.7353C349.36 90.8382 348.797 92.3211 348.797 94.1838C348.797 96.0466 349.348 97.5417 350.451 98.6691C351.579 99.7721 353.012 100.324 354.753 100.324C355.758 100.324 356.677 100.103 357.51 99.6618C358.368 99.1961 359.079 98.5098 359.642 97.6029L363.172 99.6618C362.412 101.132 361.297 102.272 359.826 103.081C358.38 103.865 356.701 104.257 354.789 104.257ZM397.445 84.3677V104H393.07V101.463C392.311 102.395 391.367 103.093 390.239 103.559C389.137 104.025 387.911 104.257 386.563 104.257C384.651 104.257 382.936 103.841 381.416 103.007C379.921 102.174 378.744 100.998 377.887 99.4779C377.053 97.9583 376.637 96.1936 376.637 94.1838C376.637 92.174 377.053 90.4216 377.887 88.9265C378.744 87.4069 379.921 86.2304 381.416 85.3971C382.936 84.5637 384.651 84.1471 386.563 84.1471C387.838 84.1471 389.002 84.3677 390.056 84.8088C391.134 85.25 392.065 85.8995 392.85 86.7574V84.3677H397.445ZM387.078 100.324C388.769 100.324 390.166 99.7598 391.269 98.6324C392.372 97.5049 392.923 96.0221 392.923 94.1838C392.923 92.3456 392.372 90.8628 391.269 89.7353C390.166 88.6079 388.769 88.0441 387.078 88.0441C385.387 88.0441 383.989 88.6079 382.887 89.7353C381.808 90.8628 381.269 92.3456 381.269 94.1838C381.269 96.0221 381.808 97.5049 382.887 98.6324C383.989 99.7598 385.387 100.324 387.078 100.324ZM434.083 76.7206V104H429.671V101.463C428.912 102.395 427.968 103.093 426.84 103.559C425.738 104.025 424.512 104.257 423.164 104.257C421.277 104.257 419.573 103.841 418.054 103.007C416.559 102.174 415.382 100.998 414.524 99.4779C413.666 97.9338 413.238 96.1691 413.238 94.1838C413.238 92.1985 413.666 90.4461 414.524 88.9265C415.382 87.4069 416.559 86.2304 418.054 85.3971C419.573 84.5637 421.277 84.1471 423.164 84.1471C424.463 84.1471 425.652 84.3677 426.73 84.8088C427.809 85.25 428.728 85.9118 429.488 86.7941V76.7206H434.083ZM423.715 100.324C424.818 100.324 425.811 100.078 426.693 99.5882C427.576 99.0735 428.274 98.3505 428.789 97.4191C429.304 96.4877 429.561 95.4093 429.561 94.1838C429.561 92.9583 429.304 91.8799 428.789 90.9485C428.274 90.0172 427.576 89.3064 426.693 88.8162C425.811 88.3015 424.818 88.0441 423.715 88.0441C422.613 88.0441 421.62 88.3015 420.738 88.8162C419.855 89.3064 419.157 90.0172 418.642 90.9485C418.127 91.8799 417.87 92.9583 417.87 94.1838C417.87 95.4093 418.127 96.4877 418.642 97.4191C419.157 98.3505 419.855 99.0735 420.738 99.5882C421.62 100.078 422.613 100.324 423.715 100.324ZM460.83 100.36C462.963 100.36 464.74 99.6495 466.161 98.2279L468.588 101.059C467.73 102.113 466.627 102.909 465.279 103.449C463.931 103.988 462.411 104.257 460.72 104.257C458.563 104.257 456.664 103.828 455.021 102.971C453.379 102.113 452.105 100.924 451.198 99.4044C450.316 97.8603 449.874 96.1201 449.874 94.1838C449.874 92.2721 450.303 90.5564 451.161 89.0368C452.044 87.4927 453.244 86.2917 454.764 85.4338C456.308 84.576 458.048 84.1471 459.985 84.1471C461.823 84.1471 463.49 84.5515 464.985 85.3603C466.504 86.1446 467.705 87.2843 468.588 88.7794C469.47 90.25 469.911 91.9779 469.911 93.9632L454.874 96.9044C455.34 98.0319 456.088 98.8897 457.117 99.4779C458.146 100.066 459.384 100.36 460.83 100.36ZM459.985 87.8235C458.293 87.8235 456.921 88.375 455.867 89.4779C454.838 90.5809 454.323 92.0637 454.323 93.9265V93.9632L465.426 91.8309C465.107 90.6299 464.458 89.6618 463.477 88.9265C462.521 88.1912 461.357 87.8235 459.985 87.8235ZM510.503 84.1471C512.978 84.1471 514.939 84.8701 516.385 86.3162C517.831 87.7378 518.554 89.8824 518.554 92.75V104H513.959V93.3382C513.959 91.6226 513.579 90.3358 512.819 89.4779C512.059 88.5956 510.968 88.1544 509.547 88.1544C508.003 88.1544 506.765 88.6691 505.834 89.6985C504.902 90.7034 504.437 92.1495 504.437 94.0368V104H499.841V93.3382C499.841 91.6226 499.461 90.3358 498.701 89.4779C497.942 88.5956 496.851 88.1544 495.429 88.1544C493.861 88.1544 492.611 88.6569 491.679 89.6618C490.772 90.6667 490.319 92.125 490.319 94.0368V104H485.723V84.3677H490.098V86.8677C490.834 85.9853 491.753 85.3113 492.856 84.8456C493.959 84.3799 495.184 84.1471 496.532 84.1471C498.003 84.1471 499.302 84.4289 500.429 84.9927C501.581 85.5319 502.488 86.3407 503.15 87.4191C503.959 86.3897 505 85.5931 506.275 85.0294C507.549 84.4412 508.959 84.1471 510.503 84.1471ZM554.831 84.3677V101.022C554.831 107.934 551.437 111.39 544.647 111.39C542.858 111.39 541.143 111.145 539.5 110.654C537.883 110.189 536.547 109.502 535.493 108.596L537.552 105.14C538.385 105.85 539.402 106.414 540.603 106.831C541.804 107.248 543.067 107.456 544.39 107.456C546.4 107.456 547.87 106.966 548.802 105.985C549.758 105.029 550.236 103.547 550.236 101.537V100.618C549.5 101.426 548.606 102.051 547.552 102.493C546.498 102.909 545.358 103.118 544.133 103.118C541.51 103.118 539.439 102.395 537.919 100.949C536.424 99.5025 535.677 97.3333 535.677 94.4412V84.3677H540.272V93.8529C540.272 95.5931 540.665 96.9044 541.449 97.7868C542.258 98.6446 543.397 99.0735 544.868 99.0735C546.51 99.0735 547.809 98.5711 548.765 97.5662C549.745 96.5613 550.236 95.1029 550.236 93.1912V84.3677H554.831Z" fill="#073322"/>
<circle cx="276" cy="94" r="7" fill="#C88B2B"/>
<circle cx="588" cy="94" r="7" fill="#C88B2B"/>
<rect x="200" y="13" width="2" height="129" fill="#C88B2B"/>
<path d="M267.385 60.4364C263.936 60.4364 260.84 59.7091 258.097 58.2545C255.354 56.7999 253.213 54.7842 251.676 52.2075C250.138 49.5892 249.369 46.6384 249.369 43.3552C249.369 40.0719 250.138 37.142 251.676 34.5652C253.213 31.9885 255.333 29.9728 258.034 28.5182C260.777 27.0636 263.894 26.3363 267.385 26.3363C270.668 26.3363 273.536 27.0013 275.988 28.3312C278.482 29.6611 280.352 31.5729 281.599 34.0665L275.614 37.5576C274.658 36.0198 273.453 34.8769 271.998 34.1288C270.585 33.3392 269.027 32.9444 267.323 32.9444C264.414 32.9444 262.003 33.9003 260.091 35.812C258.18 37.6822 257.224 40.1966 257.224 43.3552C257.224 46.5138 258.159 49.0489 260.029 50.9607C261.941 52.8309 264.372 53.766 267.323 53.766C269.027 53.766 270.585 53.3919 271.998 52.6439C273.453 51.8542 274.658 50.6905 275.614 49.1528L281.599 52.6439C280.31 55.1375 278.419 57.07 275.926 58.4415C273.474 59.7714 270.627 60.4364 267.385 60.4364ZM320.389 26.7104V60H312.971V55.6985C311.683 57.2778 310.083 58.4623 308.171 59.2519C306.301 60.0416 304.223 60.4364 301.937 60.4364C298.695 60.4364 295.786 59.7299 293.209 58.3168C290.674 56.9038 288.679 54.9089 287.224 52.3322C285.811 49.7554 285.105 46.7631 285.105 43.3552C285.105 39.9473 285.811 36.9757 287.224 34.4405C288.679 31.8638 290.674 29.8689 293.209 28.4559C295.786 27.0429 298.695 26.3363 301.937 26.3363C304.098 26.3363 306.072 26.7104 307.859 27.4585C309.688 28.2065 311.267 29.3079 312.597 30.7625V26.7104H320.389ZM302.81 53.766C305.677 53.766 308.046 52.8101 309.916 50.8983C311.786 48.9866 312.722 46.4722 312.722 43.3552C312.722 40.2382 311.786 37.7238 309.916 35.812C308.046 33.9003 305.677 32.9444 302.81 32.9444C299.942 32.9444 297.573 33.9003 295.703 35.812C293.874 37.7238 292.96 40.2382 292.96 43.3552C292.96 46.4722 293.874 48.9866 295.703 50.8983C297.573 52.8101 299.942 53.766 302.81 53.766ZM338.003 31.5729C340.248 28.0819 344.196 26.3363 349.848 26.3363V33.7548C349.183 33.6301 348.58 33.5678 348.04 33.5678C345.006 33.5678 342.637 34.4613 340.933 36.2484C339.229 37.9939 338.377 40.5291 338.377 43.8539V60H330.585V26.7104H338.003V31.5729ZM374.911 26.3363C378.153 26.3363 381.041 27.0429 383.576 28.4559C386.153 29.8689 388.169 31.8638 389.623 34.4405C391.078 37.0173 391.805 39.9888 391.805 43.3552C391.805 46.7216 391.078 49.7139 389.623 52.3322C388.169 54.9089 386.153 56.9038 383.576 58.3168C381.041 59.7299 378.153 60.4364 374.911 60.4364C372.625 60.4364 370.527 60.0416 368.615 59.2519C366.745 58.4623 365.165 57.2778 363.877 55.6985V60H356.459V13.7436H364.251V30.7625C365.581 29.3079 367.139 28.2065 368.927 27.4585C370.755 26.7104 372.75 26.3363 374.911 26.3363ZM374.038 53.766C376.906 53.766 379.254 52.8101 381.083 50.8983C382.953 48.9866 383.888 46.4722 383.888 43.3552C383.888 40.2382 382.953 37.7238 381.083 35.812C379.254 33.9003 376.906 32.9444 374.038 32.9444C372.168 32.9444 370.485 33.3808 368.989 34.2535C367.493 35.0847 366.308 36.29 365.436 37.8693C364.563 39.4485 364.126 41.2772 364.126 43.3552C364.126 45.4332 364.563 47.2618 365.436 48.8411C366.308 50.4204 367.493 51.6464 368.989 52.5192C370.485 53.3504 372.168 53.766 374.038 53.766ZM414.157 60.4364C410.791 60.4364 407.757 59.7091 405.056 58.2545C402.354 56.7999 400.235 54.7842 398.697 52.2075C397.201 49.5892 396.453 46.6384 396.453 43.3552C396.453 40.0719 397.201 37.142 398.697 34.5652C400.235 31.9885 402.354 29.9728 405.056 28.5182C407.757 27.0636 410.791 26.3363 414.157 26.3363C417.565 26.3363 420.62 27.0636 423.321 28.5182C426.023 29.9728 428.121 31.9885 429.618 34.5652C431.155 37.142 431.924 40.0719 431.924 43.3552C431.924 46.6384 431.155 49.5892 429.618 52.2075C428.121 54.7842 426.023 56.7999 423.321 58.2545C420.62 59.7091 417.565 60.4364 414.157 60.4364ZM414.157 53.766C417.025 53.766 419.394 52.8101 421.264 50.8983C423.134 48.9866 424.069 46.4722 424.069 43.3552C424.069 40.2382 423.134 37.7238 421.264 35.812C419.394 33.9003 417.025 32.9444 414.157 32.9444C411.29 32.9444 408.921 33.9003 407.05 35.812C405.222 37.7238 404.308 40.2382 404.308 43.3552C404.308 46.4722 405.222 48.9866 407.05 50.8983C408.921 52.8101 411.29 53.766 414.157 53.766ZM458.265 26.3363C462.462 26.3363 465.829 27.5624 468.364 30.0144C470.899 32.4664 472.167 36.103 472.167 40.9239V60H464.374V41.9214C464.374 39.0122 463.688 36.8303 462.317 35.3757C460.945 33.8795 458.992 33.1314 456.457 33.1314C453.589 33.1314 451.324 34.0042 449.662 35.7497C447.999 37.4537 447.168 39.9265 447.168 43.1682V60H439.376V26.7104H446.794V31.0118C448.083 29.4741 449.703 28.3104 451.657 27.5208C453.61 26.7312 455.813 26.3363 458.265 26.3363Z" fill="#073322"/>
<path d="M500.754 58.1921C499.84 58.9402 498.718 59.5013 497.388 59.8753C496.099 60.2494 494.728 60.4364 493.273 60.4364C489.616 60.4364 486.79 59.4805 484.795 57.5687C482.8 55.657 481.803 52.8724 481.803 49.2152V19.3542H489.595V26.9597H498.51V33.1937H489.595V49.0281C489.595 50.649 489.99 51.8958 490.78 52.7685C491.611 53.5997 492.754 54.0153 494.208 54.0153C495.954 54.0153 497.408 53.5582 498.572 52.6439L500.754 58.1921ZM538.641 26.7104V60H531.222V55.6985C529.934 57.2778 528.334 58.4623 526.422 59.2519C524.552 60.0416 522.474 60.4364 520.188 60.4364C516.946 60.4364 514.037 59.7299 511.46 58.3168C508.925 56.9038 506.93 54.9089 505.476 52.3322C504.063 49.7554 503.356 46.7631 503.356 43.3552C503.356 39.9473 504.063 36.9757 505.476 34.4405C506.93 31.8638 508.925 29.8689 511.46 28.4559C514.037 27.0429 516.946 26.3363 520.188 26.3363C522.349 26.3363 524.323 26.7104 526.11 27.4585C527.939 28.2065 529.518 29.3079 530.848 30.7625V26.7104H538.641ZM521.061 53.766C523.928 53.766 526.297 52.8101 528.168 50.8983C530.038 48.9866 530.973 46.4722 530.973 43.3552C530.973 40.2382 530.038 37.7238 528.168 35.812C526.297 33.9003 523.928 32.9444 521.061 32.9444C518.193 32.9444 515.824 33.9003 513.954 35.812C512.125 37.7238 511.211 40.2382 511.211 43.3552C511.211 46.4722 512.125 48.9866 513.954 50.8983C515.824 52.8101 518.193 53.766 521.061 53.766ZM559.808 60.4364C556.359 60.4364 553.657 59.5013 551.704 57.6311C549.792 55.7193 548.836 53.0387 548.836 49.5892V13.7436H556.629V49.0281C556.629 52.3529 558.187 54.0153 561.304 54.0153C562.343 54.0153 563.278 53.8075 564.11 53.3919L564.484 59.626C563.029 60.1662 561.471 60.4364 559.808 60.4364ZM583.369 45.7241L577.571 51.21V60H569.779V13.7436H577.571V41.672L593.717 26.7104H603.068L589.166 40.6746L604.377 60H594.902L583.369 45.7241Z" fill="#C88B2B"/>
<path d="M151.749 23.4313L131.853 37.2259C107.447 14.9424 49.6171 28.4715 48.8212 77.017C48.1846 115.853 75.729 128.415 94.5636 133.72L102.257 135.577L97.7133 138.095C61.2488 155.739 51.7717 134.879 39.8021 122.91C30.7962 113.904 6.90782 51.5506 57.5756 17.5952C98.1098 -9.56904 137.247 10.1675 151.749 23.4313Z" fill="url(#paint0_linear_1336_1299)" stroke="#073020" stroke-width="0.530553"/>
<path d="M70.5411 36.4301L79.0369 6.98438C30.7573 20.5135 21.8324 69.5012 24.3968 88.1589C33.4102 165.15 103.03 136.616 102.256 135.843C86.3399 130.802 87.1652 130.957 82.2134 129.012C55.6858 117.339 48.5232 100.627 47.9926 76.2216C47.5682 56.6972 62.8481 41.5588 70.5411 36.4301Z" fill="url(#paint1_linear_1336_1299)"/>
<path d="M116.978 139.357C84.2959 158.033 49.5978 136.174 36.334 122.91C74.2685 173.843 129.446 155.539 149.076 136.439C125.202 143.336 121.222 140.684 116.978 139.357Z" fill="#BD802A"/>
<path d="M121.621 131.863C117.152 136.348 113.663 140.618 98.0117 146.454C120.56 146.454 142.313 141.679 149.21 136.373C154.728 132.129 160.516 126.484 164.761 116.138C168.682 111.826 131.041 122.412 121.621 131.863Z" fill="url(#paint2_linear_1336_1299)"/>
<path d="M157.296 44.6504V57.3623L146.288 63.7168L135.28 57.3623V44.6504L146.288 38.2959L157.296 44.6504Z" stroke="#06301F" stroke-width="3.71387"/>
<path d="M172.509 69.9878V80.0454L163.797 85.0747L155.087 80.0464V69.9868L163.797 64.9575L172.509 69.9878Z" stroke="#B4842E" stroke-width="3.71387"/>
<path d="M73.2773 81.7114L90.4825 89.5469C97.4128 92.703 101.861 99.6163 101.861 107.231V119.227C101.861 119.227 100.179 117.404 73.2773 107.326V81.7114Z" fill="#0D3926"/>
<path d="M141.164 81.7114L123.959 89.5469C117.029 92.703 112.581 99.6163 112.581 107.231V119.227C112.581 119.227 114.262 117.404 141.164 107.326V81.7114Z" fill="#0D3926"/>
<path fill-rule="evenodd" clip-rule="evenodd" d="M69.8016 81.0417L65.5615 79.0332V113.177C76.0715 116.484 98.926 124.541 107.221 130.588C107.252 130.61 107.283 130.633 107.313 130.656L107.368 130.696C107.417 130.66 107.466 130.624 107.516 130.588C115.811 124.541 138.665 116.484 149.175 113.177V79.0332L144.935 81.0417V110.053C129.403 114.159 114.362 121.88 108.783 125.228V99.7873C108.783 94.2529 115.775 88.7036 119.272 86.6207L140.026 77.2479V73.0078C134.967 75.4626 123.288 81.0417 117.04 83.7196C111.172 86.2342 108.257 92.3563 107.368 95.6189C106.48 92.3563 103.564 86.2342 97.6969 83.7196C91.4484 81.0417 79.7695 75.4626 74.7112 73.0078V77.2479L95.4653 86.6207C98.9615 88.7036 105.954 94.2529 105.954 99.7873V125.228C100.375 121.88 85.3337 114.159 69.8016 110.053V81.0417Z" fill="#0C3B29"/>
<defs>
<linearGradient id="paint0_linear_1336_1299" x1="89.0013" y1="4" x2="89.0013" y2="144.922" gradientUnits="userSpaceOnUse">
<stop stop-color="#092F20"/>
<stop offset="0.495192" stop-color="#082D1E"/>
<stop offset="1" stop-color="#082B1D"/>
</linearGradient>
<linearGradient id="paint1_linear_1336_1299" x1="64.9803" y1="10.433" x2="64.9803" y2="144.63" gradientUnits="userSpaceOnUse">
<stop stop-color="#184E2E"/>
<stop offset="1" stop-color="#0B2F21"/>
</linearGradient>
<linearGradient id="paint2_linear_1336_1299" x1="159.291" y1="119.661" x2="106.235" y2="144.067" gradientUnits="userSpaceOnUse">
<stop stop-color="#164A2C"/>
<stop offset="1" stop-color="#0B3021"/>
</linearGradient>
</defs>
</svg>
