<svg width="433" height="321" viewBox="0 0 433 321" fill="none" xmlns="http://www.w3.org/2000/svg">
<path d="M42.104 253.197C39.0405 253.197 36.2908 252.551 33.8548 251.259C31.4188 249.968 29.5179 248.177 28.1523 245.889C26.7867 243.564 26.1038 240.943 26.1038 238.027C26.1038 235.112 26.7867 232.509 28.1523 230.221C29.5179 227.933 31.4003 226.143 33.7994 224.851C36.2354 223.559 39.0036 222.913 42.104 222.913C45.0199 222.913 47.5666 223.504 49.7442 224.685C51.9588 225.866 53.6197 227.564 54.727 229.778L49.4121 232.879C48.5631 231.513 47.4928 230.498 46.201 229.834C44.946 229.132 43.5619 228.782 42.0487 228.782C39.465 228.782 37.3243 229.631 35.6264 231.328C33.9286 232.989 33.0797 235.222 33.0797 238.027C33.0797 240.832 33.9102 243.084 35.5711 244.782C37.2689 246.443 39.4281 247.273 42.0487 247.273C43.5619 247.273 44.946 246.941 46.201 246.277C47.4928 245.575 48.5631 244.542 49.4121 243.176L54.727 246.277C53.5828 248.491 51.9034 250.207 49.6889 251.425C47.5112 252.607 44.9829 253.197 42.104 253.197ZM89.1768 223.245V252.81H82.5885V248.989C81.4443 250.392 80.0233 251.444 78.3255 252.145C76.6645 252.846 74.8191 253.197 72.7891 253.197C69.9101 253.197 67.3265 252.57 65.0381 251.315C62.7866 250.06 61.015 248.288 59.7232 246C58.4683 243.711 57.8408 241.054 57.8408 238.027C57.8408 235.001 58.4683 232.362 59.7232 230.11C61.015 227.822 62.7866 226.05 65.0381 224.795C67.3265 223.54 69.9101 222.913 72.7891 222.913C74.7083 222.913 76.4615 223.245 78.0486 223.91C79.6727 224.574 81.0752 225.552 82.2563 226.844V223.245H89.1768ZM73.5642 247.273C76.1109 247.273 78.2147 246.424 79.8757 244.726C81.5366 243.029 82.367 240.796 82.367 238.027C82.367 235.259 81.5366 233.026 79.8757 231.328C78.2147 229.631 76.1109 228.782 73.5642 228.782C71.0174 228.782 68.9136 229.631 67.2527 231.328C65.6287 233.026 64.8167 235.259 64.8167 238.027C64.8167 240.796 65.6287 243.029 67.2527 244.726C68.9136 246.424 71.0174 247.273 73.5642 247.273ZM104.82 227.564C106.813 224.463 110.319 222.913 115.339 222.913V229.501C114.748 229.391 114.213 229.335 113.733 229.335C111.039 229.335 108.935 230.129 107.422 231.716C105.909 233.266 105.152 235.518 105.152 238.47V252.81H98.2314V223.245H104.82V227.564ZM137.597 222.913C140.476 222.913 143.041 223.54 145.293 224.795C147.581 226.05 149.371 227.822 150.663 230.11C151.955 232.399 152.601 235.038 152.601 238.027C152.601 241.017 151.955 243.675 150.663 246C149.371 248.288 147.581 250.06 145.293 251.315C143.041 252.57 140.476 253.197 137.597 253.197C135.567 253.197 133.703 252.846 132.006 252.145C130.345 251.444 128.942 250.392 127.798 248.989V252.81H121.21V211.73H128.13V226.844C129.311 225.552 130.695 224.574 132.282 223.91C133.906 223.245 135.678 222.913 137.597 222.913ZM136.822 247.273C139.369 247.273 141.454 246.424 143.078 244.726C144.739 243.029 145.57 240.796 145.57 238.027C145.57 235.259 144.739 233.026 143.078 231.328C141.454 229.631 139.369 228.782 136.822 228.782C135.161 228.782 133.667 229.169 132.338 229.944C131.009 230.682 129.957 231.753 129.182 233.155C128.407 234.558 128.019 236.182 128.019 238.027C128.019 239.873 128.407 241.497 129.182 242.899C129.957 244.302 131.009 245.391 132.338 246.166C133.667 246.904 135.161 247.273 136.822 247.273ZM172.452 253.197C169.462 253.197 166.768 252.551 164.368 251.259C161.969 249.968 160.087 248.177 158.721 245.889C157.393 243.564 156.728 240.943 156.728 238.027C156.728 235.112 157.393 232.509 158.721 230.221C160.087 227.933 161.969 226.143 164.368 224.851C166.768 223.559 169.462 222.913 172.452 222.913C175.478 222.913 178.191 223.559 180.59 224.851C182.989 226.143 184.853 227.933 186.182 230.221C187.547 232.509 188.23 235.112 188.23 238.027C188.23 240.943 187.547 243.564 186.182 245.889C184.853 248.177 182.989 249.968 180.59 251.259C178.191 252.551 175.478 253.197 172.452 253.197ZM172.452 247.273C174.998 247.273 177.102 246.424 178.763 244.726C180.424 243.029 181.254 240.796 181.254 238.027C181.254 235.259 180.424 233.026 178.763 231.328C177.102 229.631 174.998 228.782 172.452 228.782C169.905 228.782 167.801 229.631 166.14 231.328C164.516 233.026 163.704 235.259 163.704 238.027C163.704 240.796 164.516 243.029 166.14 244.726C167.801 246.424 169.905 247.273 172.452 247.273ZM211.623 222.913C215.351 222.913 218.341 224.002 220.592 226.179C222.844 228.357 223.969 231.587 223.969 235.868V252.81H217.049V236.754C217.049 234.17 216.44 232.233 215.222 230.941C214.004 229.612 212.269 228.948 210.018 228.948C207.471 228.948 205.459 229.723 203.983 231.273C202.507 232.786 201.769 234.982 201.769 237.861V252.81H194.848V223.245H201.436V227.065C202.581 225.7 204.02 224.666 205.755 223.965C207.489 223.264 209.446 222.913 211.623 222.913Z" fill="#073322"/>
<path d="M249.358 251.204C248.546 251.868 247.549 252.367 246.368 252.699C245.224 253.031 244.006 253.197 242.714 253.197C239.466 253.197 236.956 252.348 235.185 250.65C233.413 248.953 232.527 246.48 232.527 243.232V216.712H239.448V223.467H247.365V229.003H239.448V243.066C239.448 244.505 239.798 245.612 240.499 246.387C241.238 247.126 242.253 247.495 243.545 247.495C245.095 247.495 246.387 247.089 247.42 246.277L249.358 251.204ZM283.005 223.245V252.81H276.416V248.989C275.272 250.392 273.851 251.444 272.153 252.145C270.492 252.846 268.647 253.197 266.617 253.197C263.738 253.197 261.154 252.57 258.866 251.315C256.615 250.06 254.843 248.288 253.551 246C252.296 243.711 251.669 241.054 251.669 238.027C251.669 235.001 252.296 232.362 253.551 230.11C254.843 227.822 256.615 226.05 258.866 224.795C261.154 223.54 263.738 222.913 266.617 222.913C268.536 222.913 270.289 223.245 271.877 223.91C273.501 224.574 274.903 225.552 276.084 226.844V223.245H283.005ZM267.392 247.273C269.939 247.273 272.043 246.424 273.704 244.726C275.365 243.029 276.195 240.796 276.195 238.027C276.195 235.259 275.365 233.026 273.704 231.328C272.043 229.631 269.939 228.782 267.392 228.782C264.845 228.782 262.742 229.631 261.081 231.328C259.457 233.026 258.645 235.259 258.645 238.027C258.645 240.796 259.457 243.029 261.081 244.726C262.742 246.424 264.845 247.273 267.392 247.273ZM301.803 253.197C298.74 253.197 296.341 252.367 294.606 250.706C292.908 249.008 292.059 246.627 292.059 243.564V211.73H298.98V243.066C298.98 246.018 300.364 247.495 303.132 247.495C304.055 247.495 304.885 247.31 305.624 246.941L305.956 252.477C304.664 252.957 303.28 253.197 301.803 253.197ZM322.728 240.131L317.579 245.003V252.81H310.658V211.73H317.579V236.533L331.918 223.245H340.223L327.876 235.647L341.385 252.81H332.97L322.728 240.131ZM348.611 253.197C347.356 253.197 346.285 252.773 345.399 251.924C344.514 251.038 344.071 249.931 344.071 248.602C344.071 247.236 344.495 246.129 345.344 245.28C346.23 244.431 347.319 244.007 348.611 244.007C349.902 244.007 350.973 244.431 351.822 245.28C352.708 246.129 353.15 247.236 353.15 248.602C353.15 249.931 352.708 251.038 351.822 251.924C350.936 252.773 349.866 253.197 348.611 253.197ZM359.913 223.245H366.833V252.81H359.913V223.245ZM363.401 218.373C362.146 218.373 361.094 217.986 360.245 217.211C359.396 216.399 358.971 215.402 358.971 214.221C358.971 213.04 359.396 212.062 360.245 211.287C361.094 210.475 362.146 210.069 363.401 210.069C364.655 210.069 365.707 210.456 366.556 211.231C367.405 211.969 367.83 212.911 367.83 214.055C367.83 215.273 367.405 216.306 366.556 217.155C365.744 217.967 364.692 218.373 363.401 218.373ZM404.872 211.73V252.81H398.228V248.989C397.084 250.392 395.663 251.444 393.965 252.145C392.304 252.846 390.459 253.197 388.429 253.197C385.587 253.197 383.021 252.57 380.733 251.315C378.482 250.06 376.71 248.288 375.418 246C374.126 243.675 373.48 241.017 373.48 238.027C373.48 235.038 374.126 232.399 375.418 230.11C376.71 227.822 378.482 226.05 380.733 224.795C383.021 223.54 385.587 222.913 388.429 222.913C390.385 222.913 392.175 223.245 393.799 223.91C395.423 224.574 396.807 225.57 397.951 226.899V211.73H404.872ZM389.259 247.273C390.92 247.273 392.415 246.904 393.744 246.166C395.072 245.391 396.124 244.302 396.899 242.899C397.674 241.497 398.062 239.873 398.062 238.027C398.062 236.182 397.674 234.558 396.899 233.155C396.124 231.753 395.072 230.682 393.744 229.944C392.415 229.169 390.92 228.782 389.259 228.782C387.598 228.782 386.103 229.169 384.775 229.944C383.446 230.682 382.394 231.753 381.619 233.155C380.844 234.558 380.456 236.182 380.456 238.027C380.456 239.873 380.844 241.497 381.619 242.899C382.394 244.302 383.446 245.391 384.775 246.166C386.103 246.904 387.598 247.273 389.259 247.273Z" fill="#C88B2B"/>
<path d="M11.1966 270.855H13.886L17.4877 279.646H17.6298L21.2315 270.855H23.9209V282.987H21.812V274.652H21.6995L18.3466 282.951H16.7709L13.418 274.634H13.3055V282.987H11.1966V270.855ZM30.1508 282.987V270.855H38.0413V272.697H32.3485V275.991H37.6326V277.833H32.3485V281.145H38.0887V282.987H30.1508ZM45.6781 282.987H43.3323L47.6034 270.855H50.3164L54.5934 282.987H52.2476L49.0073 273.343H48.9125L45.6781 282.987ZM45.7551 278.23H52.1528V279.995H45.7551V278.23ZM66.4258 274.19C66.3705 273.673 66.1375 273.27 65.7268 272.982C65.32 272.693 64.7908 272.549 64.1392 272.549C63.6811 272.549 63.2881 272.618 62.9604 272.756C62.6326 272.895 62.3818 273.082 62.208 273.319C62.0343 273.556 61.9454 273.827 61.9415 274.131C61.9415 274.384 61.9987 274.603 62.1133 274.788C62.2317 274.974 62.3917 275.132 62.5931 275.262C62.7945 275.389 63.0176 275.495 63.2625 275.582C63.5073 275.669 63.7541 275.742 64.0029 275.801L65.1403 276.086C65.5984 276.192 66.0387 276.336 66.4613 276.518C66.8878 276.7 67.2689 276.929 67.6046 277.205C67.9442 277.482 68.2128 277.815 68.4102 278.206C68.6077 278.597 68.7064 279.055 68.7064 279.581C68.7064 280.291 68.5248 280.917 68.1614 281.458C67.7981 281.996 67.2729 282.416 66.5857 282.72C65.9025 283.02 65.0751 283.17 64.1036 283.17C63.1598 283.17 62.3403 283.024 61.6453 282.732C60.9542 282.44 60.4131 282.013 60.0222 281.453C59.6351 280.892 59.4258 280.209 59.3942 279.403H61.5564C61.588 279.825 61.7183 280.177 61.9474 280.457C62.1764 280.738 62.4746 280.947 62.8419 281.085C63.2131 281.224 63.6278 281.293 64.0859 281.293C64.5637 281.293 64.9823 281.222 65.3417 281.079C65.705 280.933 65.9894 280.732 66.1947 280.475C66.4001 280.214 66.5048 279.91 66.5087 279.563C66.5048 279.247 66.4119 278.986 66.2303 278.781C66.0486 278.572 65.7939 278.398 65.4661 278.26C65.1423 278.117 64.7632 277.991 64.3287 277.881L62.9485 277.525C61.9494 277.268 61.1595 276.879 60.579 276.358C60.0024 275.833 59.7141 275.136 59.7141 274.267C59.7141 273.552 59.9076 272.926 60.2946 272.389C60.6856 271.852 61.2168 271.435 61.8881 271.139C62.5595 270.839 63.3197 270.689 64.1688 270.689C65.0297 270.689 65.784 270.839 66.4317 271.139C67.0833 271.435 67.5947 271.848 67.966 272.377C68.3372 272.903 68.5287 273.507 68.5406 274.19H66.4258ZM82.15 270.855H84.3478V278.781C84.3478 279.65 84.1424 280.414 83.7317 281.073C83.3249 281.733 82.7523 282.248 82.0138 282.62C81.2753 282.987 80.4124 283.17 79.4251 283.17C78.4339 283.17 77.569 282.987 76.8305 282.62C76.092 282.248 75.5193 281.733 75.1126 281.073C74.7058 280.414 74.5024 279.65 74.5024 278.781V270.855H76.7002V278.597C76.7002 279.103 76.8107 279.553 77.0319 279.948C77.257 280.343 77.5729 280.653 77.9797 280.878C78.3865 281.099 78.8683 281.21 79.4251 281.21C79.9819 281.21 80.4637 281.099 80.8705 280.878C81.2812 280.653 81.5972 280.343 81.8183 279.948C82.0395 279.553 82.15 279.103 82.15 278.597V270.855ZM90.5732 282.987V270.855H95.1227C96.0547 270.855 96.8367 271.017 97.4685 271.341C98.1044 271.664 98.5842 272.119 98.908 272.703C99.2358 273.284 99.3997 273.961 99.3997 274.735C99.3997 275.513 99.2338 276.188 98.9021 276.761C98.5743 277.33 98.0905 277.77 97.4508 278.082C96.811 278.39 96.0251 278.544 95.0931 278.544H91.8528V276.719H94.7969C95.3419 276.719 95.7881 276.644 96.1357 276.494C96.4832 276.34 96.7399 276.117 96.9058 275.825C97.0756 275.529 97.1605 275.165 97.1605 274.735C97.1605 274.305 97.0756 273.937 96.9058 273.633C96.736 273.325 96.4773 273.092 96.1298 272.934C95.7822 272.772 95.334 272.691 94.7851 272.691H92.771V282.987H90.5732ZM96.8406 277.49L99.844 282.987H97.3915L94.4415 277.49H96.8406ZM105.259 282.987V270.855H113.15V272.697H107.457V275.991H112.741V277.833H107.457V281.145H113.197V282.987H105.259Z" fill="#073322"/>
<circle cx="120.198" cy="280.487" r="1.80175" fill="#C88B2B"/>
<path d="M151.057 282.987H148.711L152.983 270.855H155.696L159.973 282.987H157.627L154.386 273.343H154.292L151.057 282.987ZM151.134 278.23H157.532V279.995H151.134V278.23ZM175.377 270.855V282.987H173.422L167.706 274.723H167.605V282.987H165.407V270.855H167.374L173.084 279.125H173.191V270.855H175.377ZM183.166 282.987H180.821L185.092 270.855H187.805L192.082 282.987H189.736L186.496 273.343H186.401L183.166 282.987ZM183.243 278.23H189.641V279.995H183.243V278.23ZM197.516 282.987V270.855H199.714V281.145H205.057V282.987H197.516ZM210.576 282.987V281.618L216.796 272.697H210.541V270.855H219.521V272.223L213.307 281.145H219.557V282.987H210.576ZM225.52 282.987V270.855H233.411V272.697H227.718V275.991H233.002V277.833H227.718V281.145H233.458V282.987H225.52Z" fill="#073322"/>
<circle cx="240.104" cy="281.789" r="1.80175" fill="#C88B2B"/>
<path d="M265.319 282.987H261.208V270.855H265.402C266.607 270.855 267.642 271.098 268.506 271.584C269.375 272.065 270.043 272.758 270.509 273.663C270.975 274.567 271.208 275.649 271.208 276.909C271.208 278.173 270.973 279.259 270.503 280.167C270.037 281.075 269.363 281.772 268.483 282.258C267.606 282.744 266.552 282.987 265.319 282.987ZM263.406 281.085H265.213C266.058 281.085 266.763 280.931 267.328 280.623C267.892 280.311 268.317 279.847 268.601 279.231C268.886 278.611 269.028 277.837 269.028 276.909C269.028 275.981 268.886 275.211 268.601 274.599C268.317 273.983 267.896 273.523 267.339 273.218C266.787 272.91 266.099 272.756 265.278 272.756H263.406V281.085ZM277.133 282.987V270.855H285.023V272.697H279.33V275.991H284.614V277.833H279.33V281.145H285.07V282.987H277.133ZM301.486 274.948H299.271C299.208 274.585 299.091 274.263 298.921 273.983C298.751 273.698 298.54 273.457 298.287 273.26C298.035 273.063 297.746 272.914 297.423 272.816C297.103 272.713 296.757 272.662 296.386 272.662C295.726 272.662 295.142 272.828 294.632 273.159C294.123 273.487 293.724 273.969 293.436 274.605C293.148 275.237 293.003 276.009 293.003 276.921C293.003 277.849 293.148 278.631 293.436 279.267C293.728 279.899 294.127 280.376 294.632 280.7C295.142 281.02 295.724 281.18 296.38 281.18C296.743 281.18 297.083 281.133 297.399 281.038C297.719 280.939 298.005 280.795 298.258 280.605C298.515 280.416 298.73 280.183 298.903 279.906C299.081 279.63 299.204 279.314 299.271 278.959L301.486 278.97C301.403 279.547 301.224 280.088 300.947 280.594C300.675 281.099 300.317 281.545 299.875 281.932C299.433 282.315 298.915 282.616 298.323 282.833C297.731 283.046 297.073 283.153 296.35 283.153C295.284 283.153 294.332 282.906 293.495 282.412C292.658 281.919 291.998 281.206 291.517 280.274C291.035 279.342 290.794 278.224 290.794 276.921C290.794 275.614 291.037 274.496 291.522 273.568C292.008 272.636 292.67 271.923 293.507 271.43C294.344 270.936 295.292 270.689 296.35 270.689C297.026 270.689 297.654 270.784 298.234 270.973C298.815 271.163 299.332 271.441 299.786 271.809C300.24 272.172 300.613 272.618 300.906 273.147C301.202 273.673 301.395 274.273 301.486 274.948ZM308.747 282.987H306.401L310.672 270.855H313.385L317.662 282.987H315.316L312.076 273.343H311.981L308.747 282.987ZM308.824 278.23H315.222V279.995H308.824V278.23ZM323.097 282.987V270.855H327.646C328.578 270.855 329.36 271.017 329.992 271.341C330.628 271.664 331.108 272.119 331.432 272.703C331.759 273.284 331.923 273.961 331.923 274.735C331.923 275.513 331.757 276.188 331.426 276.761C331.098 277.33 330.614 277.77 329.974 278.082C329.335 278.39 328.549 278.544 327.617 278.544H324.376V276.719H327.321C327.866 276.719 328.312 276.644 328.659 276.494C329.007 276.34 329.264 276.117 329.429 275.825C329.599 275.529 329.684 275.165 329.684 274.735C329.684 274.305 329.599 273.937 329.429 273.633C329.26 273.325 329.001 273.092 328.653 272.934C328.306 272.772 327.858 272.691 327.309 272.691H325.295V282.987H323.097ZM329.364 277.49L332.368 282.987H329.915L326.965 277.49H329.364ZM337.783 282.987V270.855H342.427C343.304 270.855 344.033 270.993 344.613 271.27C345.198 271.542 345.634 271.915 345.922 272.389C346.215 272.863 346.361 273.4 346.361 274C346.361 274.494 346.266 274.917 346.076 275.268C345.887 275.616 345.632 275.898 345.312 276.115C344.992 276.332 344.635 276.488 344.24 276.583V276.702C344.67 276.725 345.083 276.858 345.478 277.099C345.877 277.336 346.203 277.671 346.455 278.106C346.708 278.54 346.835 279.065 346.835 279.681C346.835 280.309 346.683 280.874 346.378 281.376C346.074 281.873 345.616 282.266 345.004 282.554C344.392 282.843 343.622 282.987 342.694 282.987H337.783ZM339.981 281.15H342.344C343.142 281.15 343.717 280.998 344.068 280.694C344.424 280.386 344.601 279.991 344.601 279.51C344.601 279.15 344.512 278.826 344.335 278.538C344.157 278.246 343.904 278.017 343.576 277.851C343.249 277.681 342.858 277.596 342.404 277.596H339.981V281.15ZM339.981 276.015H342.155C342.534 276.015 342.875 275.945 343.18 275.807C343.484 275.665 343.723 275.466 343.896 275.209C344.074 274.948 344.163 274.64 344.163 274.285C344.163 273.815 343.997 273.428 343.665 273.124C343.338 272.82 342.85 272.668 342.202 272.668H339.981V276.015ZM363.424 276.921C363.424 278.228 363.179 279.348 362.689 280.28C362.203 281.208 361.54 281.919 360.699 282.412C359.862 282.906 358.912 283.153 357.849 283.153C356.787 283.153 355.835 282.906 354.994 282.412C354.157 281.915 353.493 281.202 353.004 280.274C352.518 279.342 352.275 278.224 352.275 276.921C352.275 275.614 352.518 274.496 353.004 273.568C353.493 272.636 354.157 271.923 354.994 271.43C355.835 270.936 356.787 270.689 357.849 270.689C358.912 270.689 359.862 270.936 360.699 271.43C361.54 271.923 362.203 272.636 362.689 273.568C363.179 274.496 363.424 275.614 363.424 276.921ZM361.214 276.921C361.214 276.001 361.07 275.225 360.782 274.593C360.497 273.957 360.102 273.477 359.597 273.153C359.091 272.826 358.509 272.662 357.849 272.662C357.19 272.662 356.607 272.826 356.102 273.153C355.596 273.477 355.2 273.957 354.911 274.593C354.627 275.225 354.485 276.001 354.485 276.921C354.485 277.841 354.627 278.619 354.911 279.255C355.2 279.887 355.596 280.367 356.102 280.694C356.607 281.018 357.19 281.18 357.849 281.18C358.509 281.18 359.091 281.018 359.597 280.694C360.102 280.367 360.497 279.887 360.782 279.255C361.07 278.619 361.214 277.841 361.214 276.921ZM379.308 270.855V282.987H377.353L371.637 274.723H371.536V282.987H369.338V270.855H371.305L377.015 279.125H377.122V270.855H379.308ZM387.737 270.855V282.987H385.539V270.855H387.737ZM393.729 282.987V281.618L399.949 272.697H393.693V270.855H402.673V272.223L396.459 281.145H402.709V282.987H393.729ZM408.672 282.987V270.855H416.563V272.697H410.87V275.991H416.154V277.833H410.87V281.145H416.61V282.987H408.672Z" fill="#073322"/>
<circle cx="422.813" cy="280.487" r="1.80175" fill="#C88B2B"/>
<path d="M277.602 33.4405L253.68 50.0269C224.335 23.2336 154.801 39.5007 153.845 97.871C153.079 144.567 191.801 161.983 211.258 164.853H223.378L217.956 175.698C181.594 188.138 157.392 167.443 143 153.052C132.172 142.223 103.449 67.2506 164.371 26.4233C213.108 -6.2385 260.166 17.4924 277.602 33.4405Z" fill="url(#paint0_linear_1335_995)" stroke="#073020" stroke-width="0.637926"/>
<path d="M179.96 49.0701L190.175 13.665C132.125 29.9322 121.394 88.834 124.477 111.268C132.77 195.793 216.003 176.336 215.753 176.336C215.553 176.336 220.089 168.681 222.382 164.854C213.962 166.895 199.949 162.727 193.995 160.388C162.098 146.354 153.486 126.259 152.848 96.9145C152.338 73.4389 170.71 55.2367 179.96 49.0701Z" fill="url(#paint1_linear_1335_995)"/>
<path d="M180.934 121.156H199.433V156.242H196.882C188.074 156.242 180.934 149.101 180.934 140.294V121.156Z" fill="url(#paint2_linear_1335_995)"/>
<path d="M202.623 101.379H221.123V159.431H211.554C206.622 159.431 202.623 155.432 202.623 150.5V101.379Z" fill="url(#paint3_linear_1335_995)"/>
<path d="M224.313 91.8109H242.813V128.593C224.313 139.368 224.313 159.431 224.313 159.431V91.8109Z" fill="url(#paint4_linear_1335_995)"/>
<path d="M235.795 172.827C196.499 195.282 154.778 169 138.83 153.052C184.442 214.293 250.786 192.284 274.389 169.319C245.683 177.612 240.898 174.422 235.795 172.827Z" fill="#BD802A"/>
<path d="M228.46 157.358C226.163 165.524 222.293 173.041 220.805 175.061C239.177 169.958 265.778 147.789 276.942 137.901C275.347 144.919 250.149 166.768 235.796 172.828C241.537 176.337 263.227 176.177 274.709 169.16C286.192 162.143 296.08 147.789 300.227 139.496C304.373 131.203 312.508 103.932 308.361 108.397C304.215 112.863 290.02 114.298 269.925 118.445C253.849 121.762 239.73 133.861 235.796 139.496C233.563 142.048 230.756 149.193 228.46 157.358Z" fill="url(#paint5_linear_1335_995)"/>
<path d="M290.975 56.0991V71.3843L277.738 79.0249L264.503 71.3833V56.1001L277.738 48.4585L290.975 56.0991Z" stroke="#06301F" stroke-width="4.46548"/>
<path d="M305.438 90.2295V102.323L294.963 108.37L284.489 102.323V90.2295L294.963 84.1826L305.438 90.2295Z" stroke="#B4842E" stroke-width="4.46548"/>
<defs>
<linearGradient id="paint0_linear_1335_995" x1="202.156" y1="10.0767" x2="202.156" y2="179.519" gradientUnits="userSpaceOnUse">
<stop stop-color="#092F20"/>
<stop offset="0.495192" stop-color="#082D1E"/>
<stop offset="1" stop-color="#082B1D"/>
</linearGradient>
<linearGradient id="paint1_linear_1335_995" x1="173.274" y1="17.8116" x2="173.274" y2="179.168" gradientUnits="userSpaceOnUse">
<stop stop-color="#184E2E"/>
<stop offset="1" stop-color="#0B2F21"/>
</linearGradient>
<linearGradient id="paint2_linear_1335_995" x1="180.934" y1="138.699" x2="199.433" y2="138.699" gradientUnits="userSpaceOnUse">
<stop stop-color="#154A2C"/>
<stop offset="1" stop-color="#082E1F"/>
</linearGradient>
<linearGradient id="paint3_linear_1335_995" x1="202.623" y1="130.405" x2="221.123" y2="130.405" gradientUnits="userSpaceOnUse">
<stop stop-color="#154A2C"/>
<stop offset="1" stop-color="#082E1F"/>
</linearGradient>
<linearGradient id="paint4_linear_1335_995" x1="220.486" y1="124.234" x2="238.986" y2="124.234" gradientUnits="userSpaceOnUse">
<stop stop-color="#154A2C"/>
<stop offset="1" stop-color="#082E1F"/>
</linearGradient>
<linearGradient id="paint5_linear_1335_995" x1="221.124" y1="174.742" x2="317.132" y2="107.121" gradientUnits="userSpaceOnUse">
<stop stop-color="#0A3F2B"/>
<stop offset="1" stop-color="#457844"/>
</linearGradient>
</defs>
</svg>
