<svg width="523" height="185" viewBox="0 0 523 185" fill="none" xmlns="http://www.w3.org/2000/svg">
<path d="M114.406 63.5896C138.863 87.2315 128.084 119.479 119.841 131.255L128.537 138.32C129.624 137.414 132.776 133.537 138.863 123.102C144.95 112.667 145.929 94.8405 145.657 87.2315C145.476 79.3509 140.874 60.0568 123.917 45.9259C102.721 28.2622 74.4591 30.4363 57.6108 42.9367C44.1321 52.937 38.9507 62.1402 38.0449 65.4918C38.0449 65.4918 75.4952 25.9759 114.406 63.5896Z" fill="url(#paint0_linear_1335_1088)"/>
<path d="M2.73915 75.2746C12.9569 35.9255 46.4906 19.0228 65.2411 17.1206C63.5889 20.9251 64.6759 24.7295 67.3934 27.1753C39.6752 35.8712 28.193 57.5204 25.2943 66.5787C11.9787 101.091 33.9902 132.342 45.4036 145.657C31.8162 141.309 27.9211 147.741 25.0225 153.538C13.3373 143.846 -7.47856 114.624 2.73915 75.2746Z" fill="url(#paint1_linear_1335_1088)"/>
<circle cx="79.0785" cy="19.8382" r="8.42418" fill="url(#paint2_linear_1335_1088)"/>
<circle cx="157.885" cy="96.4711" r="8.42418" fill="#B6944D"/>
<circle cx="37.2289" cy="157.342" r="8.42418" fill="#0F678F"/>
<path d="M95.1113 20.6533C111.96 23.2802 147.667 39.1865 155.711 81.7965" stroke="url(#paint3_linear_1335_1088)" stroke-width="4.89146" stroke-linecap="round"/>
<path d="M154.352 109.243C135.874 178.207 72.2846 173.919 50.0013 160.603C50.0013 163.864 47.1026 166.853 45.6533 167.94C135.33 203.539 160.331 111.96 158.429 109.243C156.907 107.069 155.077 108.337 154.352 109.243Z" fill="url(#paint4_linear_1335_1088)"/>
<path d="M104.351 130.168L78.5352 130.167L129.624 179.625H161.146L104.351 130.168Z" fill="url(#paint5_linear_1335_1088)"/>
<path d="M80.4371 67.394L87.968 71.742V80.4379L80.4371 84.7859L72.9062 80.4379V71.742L80.4371 67.394Z" fill="#559642"/>
<path d="M70.111 82.6118L77.6419 86.9598V95.6557L70.111 100.004L62.5801 95.6557V86.9598L70.111 82.6118Z" fill="#307D4E"/>
<path d="M90.7633 82.6118L98.2942 86.9598V95.6557L90.7633 100.004L83.2324 95.6557V86.9598L90.7633 82.6118Z" fill="#307D4E"/>
<path d="M80.4371 99.46L87.968 103.808V112.504L80.4371 116.852L72.9062 112.504V103.808L80.4371 99.46Z" fill="#B6944D"/>
<path d="M99.4596 99.46L106.99 103.808V112.504L99.4596 116.852L91.9287 112.504V103.808L99.4596 99.46Z" fill="#0F4253"/>
<path d="M61.4147 99.46L68.9456 103.808V112.504L61.4147 116.852L53.8838 112.504V103.808L61.4147 99.46Z" fill="#0F4253"/>
<path d="M208.827 149.786V121.112H218.681C220.554 121.112 222.196 121.484 223.607 122.228C225.019 122.946 226.109 123.973 226.879 125.307C227.674 126.616 228.072 128.142 228.072 129.887C228.072 131.914 227.533 133.646 226.456 135.083C225.404 136.52 223.967 137.534 222.145 138.124L228.842 149.786H225.224L218.219 137.431L220.297 138.624H211.907V149.786H208.827ZM211.907 135.738H218.835C220.066 135.738 221.144 135.507 222.068 135.045C222.992 134.557 223.71 133.877 224.223 133.005C224.736 132.107 224.993 131.055 224.993 129.849C224.993 128.643 224.736 127.603 224.223 126.731C223.71 125.859 222.992 125.191 222.068 124.73C221.144 124.242 220.066 123.998 218.835 123.998H211.907V135.738ZM240.182 150.248C238.873 150.248 237.706 150.004 236.679 149.517C235.653 149.004 234.845 148.311 234.255 147.438C233.664 146.566 233.369 145.565 233.369 144.436C233.369 143.358 233.6 142.383 234.062 141.511C234.524 140.613 235.242 139.856 236.217 139.24C237.193 138.624 238.437 138.188 239.951 137.931L248.034 136.584V139.202L240.644 140.433C239.155 140.69 238.078 141.165 237.411 141.857C236.769 142.55 236.448 143.371 236.448 144.321C236.448 145.244 236.808 146.027 237.526 146.668C238.27 147.31 239.22 147.631 240.374 147.631C241.786 147.631 243.017 147.336 244.069 146.745C245.121 146.13 245.942 145.309 246.533 144.282C247.123 143.256 247.418 142.114 247.418 140.857V135.622C247.418 134.39 246.969 133.39 246.071 132.62C245.173 131.85 244.005 131.465 242.568 131.465C241.311 131.465 240.208 131.786 239.258 132.427C238.309 133.043 237.603 133.852 237.141 134.852L234.524 133.428C234.909 132.556 235.512 131.76 236.333 131.042C237.18 130.323 238.142 129.759 239.22 129.348C240.297 128.912 241.414 128.694 242.568 128.694C244.082 128.694 245.416 128.989 246.571 129.579C247.751 130.169 248.662 130.99 249.304 132.043C249.971 133.069 250.305 134.262 250.305 135.622V149.786H247.418V145.668L247.841 146.091C247.482 146.861 246.918 147.567 246.148 148.208C245.404 148.824 244.518 149.324 243.492 149.709C242.491 150.068 241.388 150.248 240.182 150.248ZM257.82 158.254C257.41 158.254 256.986 158.215 256.55 158.138C256.14 158.087 255.729 157.984 255.318 157.83V155.136C255.575 155.162 255.896 155.2 256.281 155.252C256.691 155.329 257.102 155.367 257.512 155.367C258.77 155.367 259.732 155.098 260.399 154.559C261.066 154.046 261.72 153.045 262.362 151.557L263.671 148.477L263.594 151.018L254.857 129.156H257.974L265.133 147.207H264.325L271.445 129.156H274.64L265.21 152.403C264.8 153.404 264.274 154.354 263.632 155.252C263.016 156.15 262.234 156.868 261.284 157.407C260.335 157.972 259.18 158.254 257.82 158.254ZM284.401 150.248C283.092 150.248 281.925 150.004 280.898 149.517C279.872 149.004 279.064 148.311 278.474 147.438C277.883 146.566 277.588 145.565 277.588 144.436C277.588 143.358 277.819 142.383 278.281 141.511C278.743 140.613 279.462 139.856 280.437 139.24C281.412 138.624 282.656 138.188 284.17 137.931L292.253 136.584V139.202L284.863 140.433C283.375 140.69 282.297 141.165 281.63 141.857C280.988 142.55 280.668 143.371 280.668 144.321C280.668 145.244 281.027 146.027 281.745 146.668C282.489 147.31 283.439 147.631 284.593 147.631C286.005 147.631 287.236 147.336 288.288 146.745C289.34 146.13 290.162 145.309 290.752 144.282C291.342 143.256 291.637 142.114 291.637 140.857V135.622C291.637 134.39 291.188 133.39 290.29 132.62C289.392 131.85 288.224 131.465 286.787 131.465C285.53 131.465 284.427 131.786 283.477 132.427C282.528 133.043 281.822 133.852 281.36 134.852L278.743 133.428C279.128 132.556 279.731 131.76 280.552 131.042C281.399 130.323 282.361 129.759 283.439 129.348C284.516 128.912 285.633 128.694 286.787 128.694C288.301 128.694 289.636 128.989 290.79 129.579C291.971 130.169 292.882 130.99 293.523 132.043C294.19 133.069 294.524 134.262 294.524 135.622V149.786H291.637V145.668L292.06 146.091C291.701 146.861 291.137 147.567 290.367 148.208C289.623 148.824 288.737 149.324 287.711 149.709C286.71 150.068 285.607 150.248 284.401 150.248ZM319.395 150.248C317.573 150.248 315.918 149.902 314.43 149.209C312.942 148.516 311.684 147.592 310.658 146.438C309.632 145.257 308.9 143.961 308.464 142.55L311.235 141.511C311.902 143.461 312.942 144.949 314.353 145.976C315.764 146.976 317.445 147.477 319.395 147.477C320.627 147.477 321.704 147.284 322.628 146.899C323.578 146.489 324.309 145.924 324.822 145.206C325.335 144.487 325.592 143.653 325.592 142.704C325.592 141.293 325.207 140.202 324.437 139.432C323.667 138.663 322.564 138.073 321.127 137.662L315.97 136.122C313.942 135.532 312.377 134.544 311.274 133.159C310.196 131.773 309.657 130.195 309.657 128.425C309.657 126.911 310.029 125.576 310.773 124.422C311.518 123.241 312.531 122.318 313.814 121.65C315.123 120.983 316.598 120.65 318.24 120.65C319.96 120.65 321.499 120.97 322.859 121.612C324.245 122.228 325.412 123.049 326.362 124.075C327.311 125.102 327.991 126.243 328.402 127.501L325.707 128.579C325.091 126.885 324.129 125.602 322.821 124.73C321.538 123.857 320.024 123.421 318.279 123.421C317.176 123.421 316.2 123.613 315.354 123.998C314.533 124.383 313.891 124.935 313.429 125.653C312.967 126.372 312.736 127.219 312.736 128.194C312.736 129.374 313.108 130.439 313.853 131.388C314.597 132.312 315.739 133.005 317.278 133.467L321.82 134.814C324.078 135.481 325.784 136.443 326.939 137.7C328.094 138.958 328.671 140.536 328.671 142.435C328.671 143.974 328.273 145.334 327.478 146.515C326.708 147.669 325.618 148.58 324.206 149.247C322.821 149.914 321.217 150.248 319.395 150.248ZM335.348 149.786V120.65H338.235V133.159L337.581 133.005C338.094 131.67 338.928 130.618 340.082 129.849C341.263 129.079 342.623 128.694 344.162 128.694C345.625 128.694 346.934 129.028 348.088 129.695C349.269 130.362 350.192 131.286 350.86 132.466C351.552 133.621 351.899 134.929 351.899 136.392V149.786H349.012V137.508C349.012 136.251 348.781 135.186 348.319 134.313C347.857 133.441 347.216 132.774 346.395 132.312C345.599 131.824 344.688 131.581 343.662 131.581C342.636 131.581 341.712 131.824 340.891 132.312C340.07 132.774 339.415 133.454 338.928 134.352C338.466 135.224 338.235 136.276 338.235 137.508V149.786H335.348ZM364.533 150.248C363.224 150.248 362.056 150.004 361.03 149.517C360.004 149.004 359.195 148.311 358.605 147.438C358.015 146.566 357.72 145.565 357.72 144.436C357.72 143.358 357.951 142.383 358.413 141.511C358.875 140.613 359.593 139.856 360.568 139.24C361.543 138.624 362.788 138.188 364.302 137.931L372.384 136.584V139.202L364.994 140.433C363.506 140.69 362.428 141.165 361.761 141.857C361.12 142.55 360.799 143.371 360.799 144.321C360.799 145.244 361.158 146.027 361.877 146.668C362.621 147.31 363.57 147.631 364.725 147.631C366.136 147.631 367.368 147.336 368.42 146.745C369.472 146.13 370.293 145.309 370.883 144.282C371.473 143.256 371.769 142.114 371.769 140.857V135.622C371.769 134.39 371.319 133.39 370.421 132.62C369.523 131.85 368.356 131.465 366.919 131.465C365.662 131.465 364.558 131.786 363.609 132.427C362.659 133.043 361.954 133.852 361.492 134.852L358.875 133.428C359.26 132.556 359.863 131.76 360.684 131.042C361.53 130.323 362.493 129.759 363.57 129.348C364.648 128.912 365.764 128.694 366.919 128.694C368.433 128.694 369.767 128.989 370.922 129.579C372.102 130.169 373.013 130.99 373.655 132.043C374.322 133.069 374.655 134.262 374.655 135.622V149.786H371.769V145.668L372.192 146.091C371.833 146.861 371.268 147.567 370.498 148.208C369.754 148.824 368.869 149.324 367.843 149.709C366.842 150.068 365.739 150.248 364.533 150.248ZM381.748 149.786V120.65H384.634V141.049L383.403 140.857L394.988 129.156H398.721L390.639 137.431L399.453 149.786H395.989L387.713 138.355L389.561 138.509L383.672 144.59L384.634 142.204V149.786H381.748ZM409.954 150.248C408.646 150.248 407.478 150.004 406.452 149.517C405.426 149.004 404.617 148.311 404.027 147.438C403.437 146.566 403.142 145.565 403.142 144.436C403.142 143.358 403.373 142.383 403.835 141.511C404.297 140.613 405.015 139.856 405.99 139.24C406.965 138.624 408.21 138.188 409.724 137.931L417.806 136.584V139.202L410.416 140.433C408.928 140.69 407.85 141.165 407.183 141.857C406.542 142.55 406.221 143.371 406.221 144.321C406.221 145.244 406.58 146.027 407.299 146.668C408.043 147.31 408.992 147.631 410.147 147.631C411.558 147.631 412.79 147.336 413.842 146.745C414.894 146.13 415.715 145.309 416.305 144.282C416.895 143.256 417.19 142.114 417.19 140.857V135.622C417.19 134.39 416.741 133.39 415.843 132.62C414.945 131.85 413.778 131.465 412.341 131.465C411.084 131.465 409.98 131.786 409.031 132.427C408.081 133.043 407.376 133.852 406.914 134.852L404.297 133.428C404.681 132.556 405.284 131.76 406.106 131.042C406.952 130.323 407.915 129.759 408.992 129.348C410.07 128.912 411.186 128.694 412.341 128.694C413.855 128.694 415.189 128.989 416.344 129.579C417.524 130.169 418.435 130.99 419.076 132.043C419.744 133.069 420.077 134.262 420.077 135.622V149.786H417.19V145.668L417.614 146.091C417.255 146.861 416.69 147.567 415.92 148.208C415.176 148.824 414.291 149.324 413.265 149.709C412.264 150.068 411.16 150.248 409.954 150.248ZM434.684 150.017C432.836 150.017 431.412 149.478 430.412 148.401C429.411 147.323 428.91 145.783 428.91 143.782V132.043H425.1V129.156H426.062C426.935 129.156 427.628 128.874 428.141 128.309C428.654 127.719 428.91 126.988 428.91 126.115V124.383H431.797V129.156H436.339V132.043H431.797V143.782C431.797 144.475 431.9 145.09 432.105 145.629C432.31 146.142 432.657 146.553 433.144 146.861C433.658 147.169 434.337 147.323 435.184 147.323C435.39 147.323 435.633 147.31 435.916 147.284C436.198 147.259 436.442 147.233 436.647 147.207V149.786C436.339 149.863 435.993 149.914 435.608 149.94C435.223 149.991 434.915 150.017 434.684 150.017ZM448.46 150.248C447.152 150.248 445.984 150.004 444.958 149.517C443.931 149.004 443.123 148.311 442.533 147.438C441.943 146.566 441.648 145.565 441.648 144.436C441.648 143.358 441.879 142.383 442.341 141.511C442.802 140.613 443.521 139.856 444.496 139.24C445.471 138.624 446.716 138.188 448.229 137.931L456.312 136.584V139.202L448.922 140.433C447.434 140.69 446.356 141.165 445.689 141.857C445.048 142.55 444.727 143.371 444.727 144.321C444.727 145.244 445.086 146.027 445.805 146.668C446.549 147.31 447.498 147.631 448.653 147.631C450.064 147.631 451.296 147.336 452.348 146.745C453.4 146.13 454.221 145.309 454.811 144.282C455.401 143.256 455.696 142.114 455.696 140.857V135.622C455.696 134.39 455.247 133.39 454.349 132.62C453.451 131.85 452.284 131.465 450.847 131.465C449.589 131.465 448.486 131.786 447.537 132.427C446.587 133.043 445.882 133.852 445.42 134.852L442.802 133.428C443.187 132.556 443.79 131.76 444.611 131.042C445.458 130.323 446.42 129.759 447.498 129.348C448.576 128.912 449.692 128.694 450.847 128.694C452.361 128.694 453.695 128.989 454.85 129.579C456.03 130.169 456.941 130.99 457.582 132.043C458.25 133.069 458.583 134.262 458.583 135.622V149.786H455.696V145.668L456.12 146.091C455.761 146.861 455.196 147.567 454.426 148.208C453.682 148.824 452.797 149.324 451.77 149.709C450.77 150.068 449.666 150.248 448.46 150.248ZM465.675 149.786V129.156H468.562V133.082L468.1 132.504C468.665 131.298 469.499 130.362 470.602 129.695C471.731 129.028 472.963 128.694 474.297 128.694C475.888 128.694 477.325 129.143 478.608 130.041C479.891 130.939 480.802 132.107 481.341 133.544L480.532 133.582C481.045 131.991 481.931 130.785 483.188 129.964C484.471 129.117 485.882 128.694 487.422 128.694C488.807 128.694 490.078 129.028 491.232 129.695C492.413 130.362 493.349 131.286 494.042 132.466C494.76 133.621 495.12 134.929 495.12 136.392V149.786H492.233V137.508C492.233 136.251 492.002 135.186 491.54 134.313C491.104 133.441 490.501 132.774 489.731 132.312C488.961 131.824 488.076 131.581 487.075 131.581C486.1 131.581 485.215 131.824 484.42 132.312C483.624 132.774 482.996 133.454 482.534 134.352C482.072 135.224 481.841 136.276 481.841 137.508V149.786H478.954V137.508C478.954 136.251 478.723 135.186 478.261 134.313C477.825 133.441 477.222 132.774 476.452 132.312C475.683 131.824 474.797 131.581 473.797 131.581C472.796 131.581 471.898 131.824 471.102 132.312C470.333 132.774 469.717 133.454 469.255 134.352C468.793 135.224 468.562 136.276 468.562 137.508V149.786H465.675ZM507.752 150.248C506.443 150.248 505.276 150.004 504.249 149.517C503.223 149.004 502.415 148.311 501.825 147.438C501.234 146.566 500.939 145.565 500.939 144.436C500.939 143.358 501.17 142.383 501.632 141.511C502.094 140.613 502.813 139.856 503.788 139.24C504.763 138.624 506.007 138.188 507.521 137.931L515.604 136.584V139.202L508.214 140.433C506.726 140.69 505.648 141.165 504.981 141.857C504.339 142.55 504.019 143.371 504.019 144.321C504.019 145.244 504.378 146.027 505.096 146.668C505.84 147.31 506.79 147.631 507.944 147.631C509.356 147.631 510.587 147.336 511.639 146.745C512.691 146.13 513.513 145.309 514.103 144.282C514.693 143.256 514.988 142.114 514.988 140.857V135.622C514.988 134.39 514.539 133.39 513.641 132.62C512.743 131.85 511.575 131.465 510.138 131.465C508.881 131.465 507.778 131.786 506.828 132.427C505.879 133.043 505.173 133.852 504.711 134.852L502.094 133.428C502.479 132.556 503.082 131.76 503.903 131.042C504.75 130.323 505.712 129.759 506.79 129.348C507.867 128.912 508.984 128.694 510.138 128.694C511.652 128.694 512.987 128.989 514.141 129.579C515.322 130.169 516.232 130.99 516.874 132.043C517.541 133.069 517.875 134.262 517.875 135.622V149.786H514.988V145.668L515.411 146.091C515.052 146.861 514.488 147.567 513.718 148.208C512.974 148.824 512.088 149.324 511.062 149.709C510.061 150.068 508.958 150.248 507.752 150.248Z" fill="#2C7345"/>
<rect x="235.334" y="175.006" width="1.08699" height="26.0878" transform="rotate(90 235.334 175.006)" fill="#B6944D"/>
<rect x="517.407" y="175.006" width="1.08699" height="26.0878" transform="rotate(90 517.407 175.006)" fill="#B6944D"/>
<path d="M243.984 171.51H246.029C246.694 171.51 247.193 171.688 247.525 172.045C247.858 172.402 248.024 172.925 248.024 173.615V177.922C248.024 178.612 247.858 179.135 247.525 179.492C247.193 179.849 246.694 180.027 246.029 180.027H243.984V171.51ZM246.004 178.811C246.223 178.811 246.39 178.746 246.503 178.616C246.625 178.486 246.686 178.275 246.686 177.983V173.554C246.686 173.262 246.625 173.051 246.503 172.921C246.39 172.791 246.223 172.726 246.004 172.726H245.323V178.811H246.004ZM253.43 171.51H255.413C256.103 171.51 256.606 171.672 256.922 171.996C257.238 172.313 257.397 172.803 257.397 173.469V173.992C257.397 174.876 257.105 175.436 256.521 175.671V175.695C256.845 175.793 257.072 175.992 257.202 176.292C257.34 176.592 257.409 176.993 257.409 177.496V178.993C257.409 179.236 257.417 179.435 257.433 179.589C257.449 179.735 257.49 179.881 257.555 180.027H256.192C256.143 179.889 256.111 179.76 256.095 179.638C256.078 179.516 256.07 179.297 256.07 178.981V177.423C256.07 177.034 256.005 176.762 255.876 176.608C255.754 176.454 255.539 176.377 255.231 176.377H254.768V180.027H253.43V171.51ZM255.255 175.16C255.523 175.16 255.722 175.091 255.851 174.953C255.989 174.815 256.058 174.584 256.058 174.26V173.603C256.058 173.294 256.001 173.071 255.888 172.933C255.782 172.795 255.612 172.726 255.377 172.726H254.768V175.16H255.255ZM262.84 171.51H264.178V180.027H262.84V171.51ZM269.33 171.51H270.681L271.557 178.117H271.581L272.457 171.51H273.686L272.396 180.027H270.62L269.33 171.51ZM278.831 171.51H282.482V172.726H280.17V174.978H282.007V176.194H280.17V178.811H282.482V180.027H278.831V171.51ZM295.434 176.401L293.816 171.51H295.24L296.152 174.637H296.177L297.089 171.51H298.391L296.773 176.401V180.027H295.434V176.401ZM305.217 180.149C304.56 180.149 304.057 179.962 303.708 179.589C303.36 179.216 303.185 178.689 303.185 178.007V173.53C303.185 172.848 303.36 172.321 303.708 171.948C304.057 171.574 304.56 171.388 305.217 171.388C305.874 171.388 306.377 171.574 306.726 171.948C307.075 172.321 307.249 172.848 307.249 173.53V178.007C307.249 178.689 307.075 179.216 306.726 179.589C306.377 179.962 305.874 180.149 305.217 180.149ZM305.217 178.932C305.68 178.932 305.911 178.652 305.911 178.093V173.444C305.911 172.885 305.68 172.605 305.217 172.605C304.755 172.605 304.524 172.885 304.524 173.444V178.093C304.524 178.652 304.755 178.932 305.217 178.932ZM314.604 180.149C313.955 180.149 313.46 179.967 313.119 179.601C312.778 179.228 312.608 178.697 312.608 178.007V171.51H313.947V178.105C313.947 178.397 314.003 178.608 314.117 178.738C314.239 178.867 314.409 178.932 314.628 178.932C314.847 178.932 315.013 178.867 315.127 178.738C315.249 178.608 315.309 178.397 315.309 178.105V171.51H316.599V178.007C316.599 178.697 316.429 179.228 316.088 179.601C315.748 179.967 315.253 180.149 314.604 180.149ZM322.055 171.51H324.038C324.728 171.51 325.231 171.672 325.547 171.996C325.864 172.313 326.022 172.803 326.022 173.469V173.992C326.022 174.876 325.73 175.436 325.146 175.671V175.695C325.47 175.793 325.697 175.992 325.827 176.292C325.965 176.592 326.034 176.993 326.034 177.496V178.993C326.034 179.236 326.042 179.435 326.058 179.589C326.074 179.735 326.115 179.881 326.18 180.027H324.817C324.768 179.889 324.736 179.76 324.72 179.638C324.703 179.516 324.695 179.297 324.695 178.981V177.423C324.695 177.034 324.63 176.762 324.501 176.608C324.379 176.454 324.164 176.377 323.856 176.377H323.393V180.027H322.055V171.51ZM323.88 175.16C324.148 175.16 324.347 175.091 324.476 174.953C324.614 174.815 324.683 174.584 324.683 174.26V173.603C324.683 173.294 324.626 173.071 324.513 172.933C324.407 172.795 324.237 172.726 324.002 172.726H323.393V175.16H323.88ZM339.656 180.149C339.007 180.149 338.516 179.967 338.184 179.601C337.851 179.228 337.685 178.697 337.685 178.007V177.521H338.95V178.105C338.95 178.656 339.181 178.932 339.644 178.932C339.871 178.932 340.041 178.867 340.155 178.738C340.276 178.6 340.337 178.381 340.337 178.08C340.337 177.723 340.256 177.411 340.094 177.143C339.932 176.868 339.632 176.539 339.194 176.158C338.642 175.671 338.257 175.233 338.038 174.844C337.819 174.446 337.709 174 337.709 173.505C337.709 172.832 337.879 172.313 338.22 171.948C338.561 171.574 339.056 171.388 339.705 171.388C340.345 171.388 340.828 171.574 341.153 171.948C341.485 172.313 341.652 172.84 341.652 173.53V173.882H340.386V173.444C340.386 173.152 340.329 172.941 340.216 172.812C340.102 172.674 339.936 172.605 339.717 172.605C339.271 172.605 339.048 172.876 339.048 173.42C339.048 173.728 339.129 174.016 339.291 174.284C339.461 174.552 339.765 174.876 340.203 175.257C340.763 175.744 341.149 176.186 341.359 176.584C341.57 176.981 341.676 177.448 341.676 177.983C341.676 178.681 341.501 179.216 341.153 179.589C340.812 179.962 340.313 180.149 339.656 180.149ZM348.892 180.149C348.243 180.149 347.749 179.967 347.408 179.601C347.067 179.228 346.897 178.697 346.897 178.007V171.51H348.235V178.105C348.235 178.397 348.292 178.608 348.406 178.738C348.527 178.867 348.698 178.932 348.917 178.932C349.136 178.932 349.302 178.867 349.416 178.738C349.537 178.608 349.598 178.397 349.598 178.105V171.51H350.888V178.007C350.888 178.697 350.718 179.228 350.377 179.601C350.036 179.967 349.541 180.149 348.892 180.149ZM358.084 180.149C357.435 180.149 356.944 179.967 356.611 179.601C356.279 179.228 356.112 178.697 356.112 178.007V177.521H357.378V178.105C357.378 178.656 357.609 178.932 358.071 178.932C358.299 178.932 358.469 178.867 358.583 178.738C358.704 178.6 358.765 178.381 358.765 178.08C358.765 177.723 358.684 177.411 358.522 177.143C358.359 176.868 358.059 176.539 357.621 176.158C357.07 175.671 356.684 175.233 356.465 174.844C356.246 174.446 356.137 174 356.137 173.505C356.137 172.832 356.307 172.313 356.648 171.948C356.989 171.574 357.483 171.388 358.132 171.388C358.773 171.388 359.256 171.574 359.58 171.948C359.913 172.313 360.079 172.84 360.079 173.53V173.882H358.814V173.444C358.814 173.152 358.757 172.941 358.643 172.812C358.53 172.674 358.364 172.605 358.144 172.605C357.698 172.605 357.475 172.876 357.475 173.42C357.475 173.728 357.556 174.016 357.719 174.284C357.889 174.552 358.193 174.876 358.631 175.257C359.191 175.744 359.576 176.186 359.787 176.584C359.998 176.981 360.104 177.448 360.104 177.983C360.104 178.681 359.929 179.216 359.58 179.589C359.24 179.962 358.741 180.149 358.084 180.149ZM366.42 172.726H365.02V171.51H369.158V172.726H367.758V180.027H366.42V172.726ZM374.784 171.51H376.597L377.984 180.027H376.645L376.402 178.336V178.36H374.881L374.638 180.027H373.397L374.784 171.51ZM376.244 177.204L375.648 172.994H375.623L375.039 177.204H376.244ZM383.136 171.51H384.474V180.027H383.136V171.51ZM389.979 171.51H391.658L392.96 176.608H392.984V171.51H394.177V180.027H392.802L391.196 173.809H391.171V180.027H389.979V171.51ZM400.708 171.51H402.521L403.908 180.027H402.57L402.327 178.336V178.36H400.806L400.562 180.027H399.321L400.708 171.51ZM402.168 177.204L401.572 172.994H401.548L400.964 177.204H402.168ZM409.06 171.51H411.08C411.77 171.51 412.272 171.672 412.589 171.996C412.905 172.313 413.063 172.803 413.063 173.469V173.809C413.063 174.247 412.99 174.604 412.844 174.88C412.706 175.156 412.492 175.355 412.199 175.476V175.501C412.865 175.728 413.197 176.32 413.197 177.277V178.007C413.197 178.665 413.023 179.167 412.674 179.516C412.333 179.857 411.83 180.027 411.165 180.027H409.06V171.51ZM410.922 174.978C411.19 174.978 411.388 174.909 411.518 174.771C411.656 174.633 411.725 174.402 411.725 174.077V173.603C411.725 173.294 411.668 173.071 411.555 172.933C411.449 172.795 411.279 172.726 411.044 172.726H410.399V174.978H410.922ZM411.165 178.811C411.4 178.811 411.575 178.75 411.688 178.628C411.802 178.498 411.859 178.279 411.859 177.971V177.229C411.859 176.839 411.79 176.572 411.652 176.426C411.522 176.271 411.303 176.194 410.995 176.194H410.399V178.811H411.165ZM418.482 171.51H419.82V178.811H422.023V180.027H418.482V171.51ZM427.167 171.51H430.817V172.726H428.505V174.978H430.343V176.194H428.505V178.811H430.817V180.027H427.167V171.51ZM442.188 171.51H443.539L444.415 178.117H444.439L445.315 171.51H446.544L445.254 180.027H443.478L442.188 171.51ZM452.379 171.51H454.192L455.579 180.027H454.241L453.997 178.336V178.36H452.476L452.233 180.027H450.992L452.379 171.51ZM453.839 177.204L453.243 172.994H453.219L452.635 177.204H453.839ZM460.731 171.51H462.069V178.811H464.272V180.027H460.731V171.51ZM471.363 180.149C470.714 180.149 470.219 179.967 469.878 179.601C469.538 179.228 469.367 178.697 469.367 178.007V171.51H470.706V178.105C470.706 178.397 470.763 178.608 470.876 178.738C470.998 178.867 471.168 178.932 471.387 178.932C471.606 178.932 471.773 178.867 471.886 178.738C472.008 178.608 472.069 178.397 472.069 178.105V171.51H473.358V178.007C473.358 178.697 473.188 179.228 472.847 179.601C472.507 179.967 472.012 180.149 471.363 180.149ZM478.814 171.51H482.464V172.726H480.152V174.978H481.99V176.194H480.152V178.811H482.464V180.027H478.814V171.51Z" fill="#0D323A"/>
<path d="M317.21 106.213C313.437 106.213 310.001 105.337 306.902 103.585C303.802 101.766 301.343 99.2732 299.524 96.1067C297.772 92.8727 296.897 89.1672 296.897 84.99V50.8315H304.476V84.0804C304.476 86.9775 305.049 89.5377 306.194 91.7611C307.407 93.917 309.058 95.6014 311.146 96.8141C313.302 98.0268 315.761 98.6332 318.524 98.6332C321.286 98.6332 323.745 98.0268 325.901 96.8141C328.057 95.534 329.741 93.7486 330.954 91.4579C332.167 89.0998 332.773 86.3038 332.773 83.0698V50.8315H340.353V105H332.773V94.4897L334.491 94.8939C333.211 98.3974 331.021 101.16 327.922 103.181C324.823 105.202 321.252 106.213 317.21 106.213ZM371.605 106.213C368.169 106.213 365.103 105.573 362.408 104.293C359.713 102.945 357.591 101.126 356.042 98.8353C354.492 96.5446 353.717 93.917 353.717 90.9526C353.717 88.1229 354.323 85.5627 355.536 83.272C356.749 80.9139 358.635 78.9263 361.196 77.3094C363.756 75.6924 367.023 74.5471 370.999 73.8733L392.221 70.3362V77.2083L372.818 80.4423C368.91 81.116 366.08 82.3624 364.329 84.1815C362.644 86.0006 361.802 88.1566 361.802 90.6494C361.802 93.0748 362.745 95.1297 364.632 96.8141C366.586 98.4984 369.078 99.3406 372.11 99.3406C375.816 99.3406 379.05 98.5658 381.812 97.0162C384.574 95.3992 386.73 93.2433 388.28 90.5483C389.829 87.8534 390.604 84.8552 390.604 81.5539V67.8097C390.604 64.5757 389.425 61.9482 387.067 59.9269C384.709 57.9057 381.644 56.8951 377.871 56.8951C374.569 56.8951 371.672 57.7373 369.179 59.4216C366.687 61.0386 364.834 63.1609 363.621 65.7885L356.749 62.0492C357.76 59.7585 359.343 57.6699 361.499 55.7835C363.722 53.897 366.249 52.4148 369.078 51.3368C371.908 50.1914 374.839 49.6188 377.871 49.6188C381.846 49.6188 385.349 50.3936 388.381 51.9431C391.48 53.4927 393.872 55.6487 395.556 58.411C397.308 61.106 398.184 64.2389 398.184 67.8097V105H390.604V94.1865L391.716 95.2982C390.773 97.3194 389.29 99.1722 387.269 100.857C385.315 102.473 382.991 103.787 380.296 104.798C377.669 105.741 374.771 106.213 371.605 106.213ZM413.774 105V50.8315H421.354V61.3418L419.636 60.9375C420.983 57.4341 423.173 54.6718 426.204 52.6506C429.304 50.6294 432.874 49.6188 436.917 49.6188C440.757 49.6188 444.193 50.4946 447.225 52.2463C450.324 53.9981 452.75 56.4235 454.501 59.5227C456.321 62.5545 457.23 65.9906 457.23 69.8309V105H449.651V72.7616C449.651 69.4603 449.044 66.6643 447.831 64.3736C446.686 62.0829 445.035 60.3312 442.879 59.1185C440.791 57.8384 438.365 57.1983 435.603 57.1983C432.841 57.1983 430.382 57.8384 428.226 59.1185C426.07 60.3312 424.385 62.1166 423.173 64.4747C421.96 66.7654 421.354 69.5277 421.354 72.7616V105H413.774ZM487.371 106.213C483.935 106.213 480.869 105.573 478.174 104.293C475.479 102.945 473.357 101.126 471.807 98.8353C470.258 96.5446 469.483 93.917 469.483 90.9526C469.483 88.1229 470.089 85.5627 471.302 83.272C472.515 80.9139 474.401 78.9263 476.961 77.3094C479.522 75.6924 482.789 74.5471 486.764 73.8733L507.987 70.3362V77.2083L488.583 80.4423C484.676 81.116 481.846 82.3624 480.094 84.1815C478.41 86.0006 477.568 88.1566 477.568 90.6494C477.568 93.0748 478.511 95.1297 480.397 96.8141C482.351 98.4984 484.844 99.3406 487.876 99.3406C491.582 99.3406 494.815 98.5658 497.578 97.0162C500.34 95.3992 502.496 93.2433 504.046 90.5483C505.595 87.8534 506.37 84.8552 506.37 81.5539V67.8097C506.37 64.5757 505.191 61.9482 502.833 59.9269C500.475 57.9057 497.409 56.8951 493.636 56.8951C490.335 56.8951 487.438 57.7373 484.945 59.4216C482.452 61.0386 480.6 63.1609 479.387 65.7885L472.515 62.0492C473.525 59.7585 475.109 57.6699 477.265 55.7835C479.488 53.897 482.014 52.4148 484.844 51.3368C487.674 50.1914 490.605 49.6188 493.636 49.6188C497.611 49.6188 501.115 50.3936 504.147 51.9431C507.246 53.4927 509.638 55.6487 511.322 58.411C513.074 61.106 513.95 64.2389 513.95 67.8097V105H506.37V94.1865L507.482 95.2982C506.538 97.3194 505.056 99.1722 503.035 100.857C501.081 102.473 498.757 103.787 496.062 104.798C493.434 105.741 490.537 106.213 487.371 106.213Z" fill="#0D323A"/>
<circle cx="245.387" cy="65.4914" r="37.7729" stroke="#0D323A" stroke-width="6.52194"/>
<path d="M255.901 86.4167C256.134 86.4167 256.36 86.4911 256.547 86.6291L287.84 109.727C288.684 110.35 288.244 111.689 287.195 111.689L280.372 111.689C280.135 111.689 279.904 111.611 279.715 111.467L249.288 88.3688C248.459 87.7391 248.904 86.416 249.946 86.4161L255.901 86.4167Z" fill="#0D323A"/>
<defs>
<linearGradient id="paint0_linear_1335_1088" x1="91.8711" y1="33.1177" x2="91.8711" y2="138.32" gradientUnits="userSpaceOnUse">
<stop stop-color="#408447"/>
<stop offset="1" stop-color="#114F66"/>
</linearGradient>
<linearGradient id="paint1_linear_1335_1088" x1="33.4358" y1="17.1206" x2="33.4358" y2="153.538" gradientUnits="userSpaceOnUse">
<stop stop-color="#509340"/>
<stop offset="0.471154" stop-color="#4C9140"/>
<stop offset="1" stop-color="#206A56"/>
</linearGradient>
<linearGradient id="paint2_linear_1335_1088" x1="79.0133" y1="11.4141" x2="79.0133" y2="28.2624" gradientUnits="userSpaceOnUse">
<stop stop-color="#509340"/>
<stop offset="0.274038" stop-color="#4C9140"/>
<stop offset="1" stop-color="#206A56"/>
</linearGradient>
<linearGradient id="paint3_linear_1335_1088" x1="125.177" y1="20.6533" x2="125.177" y2="81.7965" gradientUnits="userSpaceOnUse">
<stop stop-color="#509340"/>
<stop offset="1" stop-color="#164E65"/>
</linearGradient>
<linearGradient id="paint4_linear_1335_1088" x1="157.07" y1="109.243" x2="45.6533" y2="168.484" gradientUnits="userSpaceOnUse">
<stop offset="0.453869" stop-color="#0F4253"/>
<stop offset="1" stop-color="#0F678F"/>
</linearGradient>
<linearGradient id="paint5_linear_1335_1088" x1="78.8069" y1="129.896" x2="161.418" y2="179.354" gradientUnits="userSpaceOnUse">
<stop offset="0.30754" stop-color="#0F515D"/>
<stop offset="1" stop-color="#0B3040"/>
</linearGradient>
</defs>
</svg>
